/* XPM */
static char *Back[] = {
/* columns rows colors chars-per-pixel */
"24 24 165 2",
"   c #305F04",
".  c #316104",
"X  c #326304",
"o  c #336504",
"O  c #356804",
"+  c #366A04",
"@  c #376B05",
"#  c #3A7304",
"$  c #3B7305",
"%  c #3C7407",
"&  c #3F710F",
"*  c #41780D",
"=  c #41790D",
"-  c #41790E",
";  c #437A11",
":  c #497C16",
">  c #529F08",
",  c #51861F",
"<  c #51A104",
"1  c #56A40A",
"2  c #57A809",
"3  c #58A80B",
"4  c #5BAD0A",
"5  c #5CAA0F",
"6  c #5BAC0C",
"7  c #5CAD0C",
"8  c #5DAE0D",
"9  c #5EAE0F",
"0  c #5DB00B",
"q  c #5DB10B",
"w  c #5EB10B",
"e  c #5FB00F",
"r  c #5FB40C",
"t  c #5CA613",
"y  c #5EAA13",
"u  c #60B40C",
"i  c #61B60D",
"p  c #64BB0D",
"a  c #64BA0F",
"s  c #63B117",
"d  c #65B219",
"f  c #67B718",
"g  c #69B919",
"h  c #6ABC19",
"j  c #6BBE18",
"k  c #6CBF1B",
"l  c #548823",
"z  c #548A22",
"x  c #5B8F29",
"c  c #5C8F2C",
"v  c #5B9027",
"b  c #609330",
"n  c #629234",
"m  c #659932",
"M  c #689D36",
"N  c #669639",
"B  c #679639",
"V  c #679839",
"C  c #6A993E",
"Z  c #6B993F",
"A  c #69AB29",
"S  c #6AAA2B",
"D  c #6BAF29",
"F  c #6AAC2A",
"G  c #6EB32C",
"H  c #70B62A",
"J  c #6EAD31",
"K  c #6DA03C",
"L  c #70AE34",
"P  c #71AD36",
"I  c #73B334",
"U  c #74B634",
"Y  c #77B638",
"T  c #75B03D",
"R  c #77B13F",
"E  c #79B93A",
"W  c #7BB83F",
"Q  c #6DC21A",
"!  c #73C91D",
"~  c #73C423",
"^  c #6E9E41",
"/  c #70A042",
"(  c #71A045",
")  c #76A745",
"_  c #76A34A",
"`  c #75A04D",
"'  c #77A24E",
"]  c #77A44C",
"[  c #79A54F",
"{  c #7AAD49",
"}  c #7DAF4C",
"|  c #7AB440",
" . c #7CB545",
".. c #7CB446",
"X. c #7DBB41",
"o. c #87D33B",
"O. c #82BF45",
"+. c #80B74B",
"@. c #82B74E",
"#. c #81B94A",
"$. c #85BF4D",
"%. c #85BC4F",
"&. c #84AB5E",
"*. c #82B453",
"=. c #84B753",
"-. c #84B357",
";. c #84B851",
":. c #84B951",
">. c #86B953",
",. c #86B954",
"<. c #86BA54",
"1. c #87BA55",
"2. c #88BB55",
"3. c #89BE54",
"4. c #89BD56",
"5. c #8ABE57",
"6. c #8ABD59",
"7. c #8DBE5D",
"8. c #8DBF5D",
"9. c #8FBF5E",
"0. c #8EBE5F",
"q. c #8EBF5F",
"w. c #8FB769",
"e. c #8FB56B",
"r. c #91B86B",
"t. c #93B96E",
"y. c #95BF6D",
"u. c #94BA70",
"i. c #98BD74",
"p. c #99BD76",
"a. c #9ABF76",
"s. c #9BBF7A",
"d. c #9CBF7B",
"f. c #88C54D",
"g. c #89C053",
"h. c #8CC652",
"j. c #8AC056",
"k. c #8DC457",
"l. c #8CC058",
"z. c #8CC258",
"x. c #8DC05B",
"c. c #8FC55A",
"v. c #91C45F",
"b. c #90C061",
"n. c #91C062",
"m. c #92C065",
"M. c #93C167",
"N. c #95C269",
"B. c #96C36B",
"V. c #97C36C",
"C. c #9DD267",
"Z. c #9CC672",
"A. c #9EC776",
"S. c #9EC877",
"D. c #A0C57E",
"F. c #A2C97C",
"G. c #A0C181",
"H. c #A6C686",
"J. c #A8CC84",
"K. c #AACF87",
"L. c #ABCC8C",
"P. c #AECF8E",
"I. c #B0D092",
"U. c #B2D194",
"Y. c None",
/* pixels */
"Y.Y.Y.Y.Y.Y.Y.Y.Y.Y.Y.Y.Y.Y.Y.Y.Y.Y.Y.Y.Y.Y.Y.Y.",
"Y.Y.Y.Y.Y.Y.Y.Y.Y.Y.Y.Y.Y.Y.Y.Y.Y.Y.Y.Y.Y.Y.Y.Y.",
"Y.Y.Y.Y.Y.Y.Y.Y.Y.Y.Y.Y.Y.Y.Y.Y.Y.Y.Y.Y.Y.Y.Y.Y.",
"Y.Y.Y.Y.Y.Y.Y.Y.Y.Y.Y.Y.= Y.Y.Y.Y.Y.Y.Y.Y.Y.Y.Y.",
"Y.Y.Y.Y.Y.Y.Y.Y.Y.Y.Y.n ` = Y.Y.Y.Y.Y.Y.Y.Y.Y.Y.",
"Y.Y.Y.Y.Y.Y.Y.Y.Y.Y.C H.G.; Y.Y.Y.Y.Y.Y.Y.Y.Y.Y.",
"Y.Y.Y.Y.Y.Y.Y.Y.Y.` L.K.s.Y.Y.Y.Y.Y.Y.Y.Y.Y.Y.Y.",
"Y.Y.Y.Y.Y.Y.Y.Y.&.I.F.Z.d.= $ $ $ $ $ Y.Y.Y.Y.Y.",
"Y.Y.Y.Y.Y.Y.l e.P.S.N.V.U.p.u.t.r.w.r.N Y.Y.Y.Y.",
"Y.Y.Y.Y.Y.c p.J.B.M.n.8.n.9.6.<.;...8.[ Y.Y.Y.Y.",
"Y.Y.Y.Y.B p.A.8.8.8.x.l.4.$.#. .| L ;.[ Y.Y.Y.Y.",
"Y.Y.Y.Z D.M.<.<.4.j.g.$.X.U G D S S .._ Y.Y.Y.Y.",
"Y.Y.Y.V y.;.T | W E H d e 8 6 3 1 < J ( Y.Y.Y.Y.",
"Y.Y.Y.Y.x { L t 5 7 8 u u u 0 4 1 < F ^ Y.Y.Y.Y.",
"Y.Y.Y.Y.Y.l { Y 8 w i a j k h f s y U / Y.Y.Y.Y.",
"Y.Y.Y.Y.Y.Y.: ) O.h p Q C.4.2.<.=.*.-.b Y.Y.Y.Y.",
"Y.Y.Y.Y.Y.Y.Y.* K f.~ ! x.@ . . o o O O Y.Y.Y.Y.",
"Y.Y.Y.Y.Y.Y.Y.Y.Y.m h.o.k.  Y.Y.Y.Y.Y.Y.Y.Y.Y.Y.",
"Y.Y.Y.Y.Y.Y.Y.Y.Y.Y.v c.v.o Y.Y.Y.Y.Y.Y.Y.Y.Y.Y.",
"Y.Y.Y.Y.Y.Y.Y.Y.Y.Y.Y.z M + Y.Y.Y.Y.Y.Y.Y.Y.Y.Y.",
"Y.Y.Y.Y.Y.Y.Y.Y.Y.Y.Y.Y.% Y.Y.Y.Y.Y.Y.Y.Y.Y.Y.Y.",
"Y.Y.Y.Y.Y.Y.Y.Y.Y.Y.Y.Y.Y.Y.Y.Y.Y.Y.Y.Y.Y.Y.Y.Y.",
"Y.Y.Y.Y.Y.Y.Y.Y.Y.Y.Y.Y.Y.Y.Y.Y.Y.Y.Y.Y.Y.Y.Y.Y.",
"Y.Y.Y.Y.Y.Y.Y.Y.Y.Y.Y.Y.Y.Y.Y.Y.Y.Y.Y.Y.Y.Y.Y.Y."
};
