/* XPM */
static char *DnDCursor[] = {
/* columns rows colors chars-per-pixel */
"64 64 256 2",
"   c #BB9900",
".  c #C19C00",
"X  c #C19D00",
"o  c #C29D00",
"O  c #C49D00",
"+  c #C29E00",
"@  c #C39E00",
"#  c #C39F00",
"$  c #C49F01",
"%  c #C4A000",
"&  c #C5A000",
"*  c #C4A100",
"=  c #C6A204",
"-  c #C4A304",
";  c #C3A401",
":  c #C7A301",
">  c #C6A304",
",  c #C6A305",
"<  c #C7A401",
"1  c #C8A404",
"2  c #C4A600",
"3  c #C4A603",
"4  c #C8A60C",
"5  c #C8A70C",
"6  c #C8A903",
"7  c #C9A909",
"8  c #CBA907",
"9  c #CBAA0A",
"0  c #CBAA14",
"q  c #CBAC09",
"w  c #CEAC07",
"e  c #CDAD06",
"r  c #CDAC11",
"t  c #CCAE01",
"y  c #CEAF12",
"u  c #CFAE19",
"i  c #CEAF14",
"p  c #CFAE1C",
"a  c #D0B015",
"s  c #CFB206",
"d  c #D1B014",
"f  c #CFB01A",
"g  c #D1B20E",
"h  c #D1B216",
"j  c #D0B21A",
"k  c #D0B21F",
"l  c #D2B21A",
"z  c #D0B229",
"x  c #D3B418",
"c  c #D2B41E",
"v  c #D2B41F",
"b  c #D4B612",
"n  c #D3B520",
"m  c #D1B528",
"M  c #D2B52C",
"N  c #D3B52B",
"B  c #D6B90A",
"V  c #D6B819",
"C  c #D4B91C",
"Z  c #D7B91C",
"A  c #D7BB12",
"S  c #D7BA1D",
"D  c #D6BA20",
"F  c #D4B935",
"G  c #D5BA33",
"H  c #D4BA37",
"J  c #D9BE08",
"K  c #D9BD16",
"L  c #D7BC28",
"P  c #D8BE29",
"I  c #D9BE2F",
"U  c #D7BD40",
"Y  c #D9C02A",
"T  c #D8BF3D",
"R  c #DAC033",
"E  c #DAC035",
"W  c #DAC149",
"Q  c #DFC515",
"!  c #D9C24A",
"~  c #DBC245",
"^  c #DBC247",
"/  c #E0C611",
"(  c #E0C613",
")  c #E0C70D",
"_  c #DBC348",
"`  c #DBC440",
"'  c #DDC53A",
"]  c #DCC648",
"[  c #DDC654",
"{  c #E0C83B",
"}  c #E0C83E",
"|  c #E4CA1F",
" . c #E0C842",
".. c #E4CC16",
"X. c #E0C84E",
"o. c #DDC857",
"O. c #E3CC24",
"+. c #E4CC31",
"@. c #E6CE1A",
"#. c #E0CC59",
"$. c #E3CE44",
"%. c #ECD300",
"&. c #E1CD5D",
"*. c #E7D125",
"=. c #EDD300",
"-. c #E9D21F",
";. c #EDD400",
":. c #E7D03A",
">. c #EDD401",
",. c #EDD402",
"<. c #EDD403",
"1. c #EDD407",
"2. c #EDD408",
"3. c #E7D139",
"4. c #E8D22F",
"5. c #E6D141",
"6. c #EDD507",
"7. c #E4D054",
"8. c #EED506",
"9. c #EED507",
"0. c #EDD50A",
"q. c #ECD418",
"w. c #EDD50E",
"e. c #EED609",
"r. c #EED60A",
"t. c #EDD610",
"y. c #EDD611",
"u. c #EED60F",
"i. c #EDD619",
"p. c #EDD61A",
"a. c #E8D347",
"s. c #E7D34A",
"d. c #EED70F",
"f. c #EDD61C",
"g. c #EED710",
"h. c #E9D440",
"j. c #EFD711",
"k. c #EFD712",
"l. c #EDD622",
"z. c #EDD71B",
"x. c #EED719",
"c. c #EED71B",
"v. c #EED71C",
"b. c #EED814",
"n. c #EFD812",
"m. c #E9D549",
"M. c #EDD821",
"N. c #E7D365",
"B. c #E5D36B",
"V. c #EED81F",
"C. c #EAD642",
"Z. c #ECD73B",
"A. c #EFD91F",
"S. c #ECD83A",
"D. c #F0DA1B",
"F. c #EAD658",
"G. c #EFDA2F",
"H. c #ECD947",
"J. c #EFDB35",
"K. c #F0DC2C",
"L. c #EDDA49",
"P. c #EEDA4B",
"I. c #EDDA4E",
"U. c #EFDC39",
"Y. c #EAD873",
"T. c #F3DE20",
"R. c #E9D879",
"E. c #EDDB52",
"W. c #F1DD36",
"Q. c #F0DD44",
"!. c #EEDD4B",
"~. c #F0DD47",
"^. c #EBDA7C",
"/. c #F2DF3A",
"(. c #F3E036",
"). c #F1DF48",
"_. c #F1DF4A",
"`. c #EEDD67",
"'. c #F1DF4B",
"]. c #F3E043",
"[. c #F1E04B",
"{. c #F1E04E",
"}. c #F3E142",
"|. c #ECDD82",
" X c #F2E14F",
".X c #EFE064",
"XX c #EEDE7F",
"oX c #F3E24C",
"OX c #EFE06E",
"+X c #F3E258",
"@X c #F3E259",
"#X c #F2E35B",
"$X c #F3E35D",
"%X c #F3E35E",
"&X c #F4E45C",
"*X c #F4E45D",
"=X c #F4E460",
"-X c #F4E461",
";X c #F4E562",
":X c #F0E383",
">X c #F2E474",
",X c #F4E565",
"<X c #F4E566",
"1X c #F4E567",
"2X c #EFE38C",
"3X c #F5E567",
"4X c #F6E65E",
"5X c #F4E668",
"6X c #F4E669",
"7X c #F4E66B",
"8X c #F0E48C",
"9X c #F5E66A",
"0X c #F4E66D",
"qX c #F5E768",
"wX c #F4E76D",
"eX c #F1E58C",
"rX c #F5E76D",
"tX c #F5E76E",
"yX c #F5E76F",
"uX c #F5E773",
"iX c #F6E867",
"pX c #F2E688",
"aX c #F6E86A",
"sX c #F3E78C",
"dX c #F2E791",
"fX c #F5E97D",
"gX c #F6E97D",
"hX c #F6E97E",
"jX c #F7EA7F",
"kX c #F7EA80",
"lX c #F7EB82",
"zX c #F5EA95",
"xX c #F7EB87",
"cX c #F7EC89",
"vX c #F7ED92",
"bX c #F9EE8C",
"nX c #F9EE8F",
"mX c #FBF2AA",
"MX c #FBF3A7",
"NX c #FBF3A8",
"BX c #FFFFFF",
"VX c #FFFFFF",
"CX c #FFFFFF",
"ZX c #FFFFFF",
"AX c #FFFFFF",
"SX c #FFFFFF",
"DX c #FFFFFF",
"FX c #FFFFFF",
"GX c #FFFFFF",
"HX c #FFFFFF",
"JX c #FFFFFF",
"KX c #FFFFFF",
"LX c #FFFFFF",
"PX c #FFFFFF",
"IX c #FFFFFF",
"UX c None",
/* pixels */
"UXUXUXUXUXUXUXUXUXUXUXUXUXUXUXUXUXUXUXUXUXUXUXUXUXUXUXUXUXUXUXUXUXUXUXUXUXUXUXUXUXUXUXUXUXUXUXUXUXUXUXUXUXUXUXUXUXUXUXUXUXUXUXUX",
"UXUXUXUXUXUXUXUXUXUXUXUXUXUXUXUXUXUXUXUXUXUXUXUXUXUXUXUXUXUXUXUXUXUXUXUXUXUXUXUXUXUXUXUXUXUXUXUXUXUXUXUXUXUXUXUXUXUXUXUXUXUXUXUX",
"UXUXUXUXUXUXUXUXUXUXUXUXUXUXUXUXUXUXUXUXUXUXUXUXUXUXUXUXUXUXUXUXUXUXUXUXUXUXUXUXUXUXUXUXUXUXUXUXUXUXUXUXUXUXUXUXUXUXUXUXUXUXUXUX",
"UXUXUXUXUXUXUXUXUXUXUXUXUXUXUXUXUXUXUXUXUXUXUXUXUXUXUXUXUXUXUXUXUXUXUXUXUXUXUXUXUXUXUXUXUXUXUXUXUXUXUXUXUXUXUXUXUXUXUXUXUXUXUXUX",
"UXUXUXUXUXUXUXUXUXUXUXUXUXUXUXUXUXUXUXUXUXUXUXUXUXUXUXUXUXUXUXUXUXUXUXUXUXUXUXUXUXUXUXUXUXUXUXUXUXUXUXUXUXUXUXUXUXUXUXUXUXUXUXUX",
"UXUXUXUXUXUXUXUXUXUXUXUXUXUXUXUXUXUXUXUXUXUXUXUXUXUXUXUXUXUXUXUXUXUXUXUXUXUXUXUXUXUXUXUXUXUXUXUXUXUXUXUXUXUXUXUXUXUXUXUXUXUXUXUX",
"UXUXUXUXUXUXUXUXUXUXUXUXUXUXUXUXUXUXUXUXUXUXUXUXUXUXUXUXUXUXUXUXUXUXUXUXUXUXUXUXUXUXUXUXUXUXUXUXUXUXUXUXUXUXUXUXUXUXUXUXUXUXUXUX",
"UXUXUXUXUXUXUXUXUXUXUXUXUXUXUXUXUXUXUXUXUXUXUXUXUXUXUXUXUXUXUXUXUXUXUXUXUXUXUXUXUXUXUXUXUXUXUXUXUXUXUXUXUXUXUXUXUXUXUXUXUXUXUXUX",
"UXUXUXUXUXUXUXUXUXUXUXUXUXUXUXUXUXUXUXUXUXUXUXUXUXUXUXUXUXUXUXUXUXUXUXUXUXUXUXUXUXUXUXUXUXUXUXUXUXUXUXUXUXUXUXUXUXUXUXUXUXUXUXUX",
"UXUXUXUXUXUXUXUXUXUXUXUXUXUXUXUXUXUXUXUXUXUXUXUXUXUXUXUXUXUXUXUXUXUXUXUXUXUXUXUXUXUXUXUXUXUXUXUXUXUXUXUXUXUXUXUXUXUXUXUXUXUXUXUX",
"UXUXUXUXUXUXUXUXUXUXUXUXUXUXUXUXUXUXUXUXUXUXUXUXUXUXUXUXUXUXUXUXUXUXUXUXUXUXUXUXUXUXUXUXUXUXUXUXUXUXUXUXUXUXUXUXUXUXUXUXUXUXUXUX",
"UXUXUXUXUXUXUXUXUXUXUXUXUXUXUXUXUXUXUXUXUXUXUXUXUXUXUXUXUXUXUXUXUXUXUXUXUXUXUXUXUXUXUXUXUXUXUXUXUXUXUXUXUXUXUXUXUXUXUXUXUXUXUXUX",
"UXUXUXUXUXUXUXUXUXUXUXUXUXUXUXUXUXUXUXUXUXUXUXUXUXUXUXUXUXUXUXUXUXUXUXUXUXUXUXUXUXUXUXUXUXUXUXUXUXUXUXUXUXUXUXUXUXUXUXUXUXUXUXUX",
"UXUXUXUXUXUXUXUXUXUXUXUXUXUXUXUXUXUXUXUXUXUXUXUXUXUXUXUXUXUXUXUXUXUXUXUXUXUXUXUXUXUXUXUXUXUXUXUXUXUXUXUXUXUXUXUXUXUXUXUXUXUXUXUX",
"UXUXUXUXUXUXUXUXUXUXUXUXUXUXUXUXUXUXUXUXUXUXUXUXUXUXUXUXUXUXUXUXUXUXUXUXUXUXUXUXUXUXUXUXUXUXUXUXUXUXUXUXUXUXUXUXUXUXUXUXUXUXUXUX",
"UXUXUXUXUXUXUXUXUXUXUXUXUXUXUXUXUXUXUXUXUXUXUXUXUXUXUXUXUXUXUXUXUXUXUXUXUXUXUXUXUXUXUXUXUXUXUXUXUXUXUXUXUXUXUXUXUXUXUXUXUXUXUXUX",
"UXUXUXUXUXUXUXUXUXUXUXUXUXUXUXUXUXUXUXUXUXUXUXUXUXUXUXUXUXUXUXUXUXUXUXUXUXUXUXUXUXUXUXUXUXUXUXUXUXUXUXUXUXUXUXUXUXUXUXUXUXUXUXUX",
"UXUXUXUXUXUXUXUXUXUXUXUXUXUXUXUXUXUXUXUXUXUXUXUXUXUXUXUXUXUXUXUXUXUXUXUXUXUXUXUXUXUXUXUXUXUXUXUXUXUXUXUXUXUXUXUXUXUXUXUXUXUXUXUX",
"UXUXUXUXUXUXUXUXUXUXUXUXUXUXUXUXUXUXUXUXUXUXUXUXUXUXUXUXUXUXUXUXUXUXUXUXUXUXUXUXUXUXUXUXUXUXUXUXUXUXUXUXUXUXUXUXUXUXUXUXUXUXUXUX",
"UXUXUXUXUXUXUXUXUXUXUXUXUXUXUXUXUXUXUXUXUXUXUXUXUXUXo UXUXUXUXUXUXUXUXUXUXUXUXUXUXUXUXUXUXUXUXUXUXUXUXUXUXUXUXUXUXUXUXUXUXUXUXUX",
"UXUXUXUXUXUXUXUXUXUXUXUXUXUXUXUXUXUXUXUXUXUXUXUXUXUX0 W o.[ ! U H M N p UXUXUXUXUXUXUXUXUXUXUXUXUXUXUXUXUXUXUXUXUXUXUXUXUXUXUXUX",
"UXUXUXUXUXUXUXUXUXUXUXUXUXUXUXUXUXUXUXUXUXUXUXUXUXUXz R.dXsXeX8X2X|.^.B.&.#.] T m , UXUXUXUXUXUXUXUXUXUXUXUXUXUXUXUXUXUXUXUXUXUX",
"UXUXUXUXUXUXUXUXUXUXUXUXUXUXUXUXUXUXUXUXUXUXUXUXUXUXO Y.kX5XuXgXfXxXnXlXcXbXvXmXG & UXUXUXUXUXUXUXUXUXUXUXUXUXUXUXUXUXUXUXUXUXUX",
"UXUXUXUXUXUXUXUXUXUXUXUXUXUXUXUXUXUXUXUXUXUXUXUXUXUX< XXjX*X6XrXtXyX9X,X&X;XNX~ @ UXUXUXUXUXUXUXUXUXUXUXUXUXUXUXUXUXUXUXUXUXUXUX",
"UXUXUXUXUXUXUXUXUXUXUXUXUXUXUXUXUXUXUXUXUXUXUXUXUXUXUXN.hX+X-X<X3X1X<X*XqXMX^ @ UXUXUXUXUXUXUXUXUXUXUXUXUXUXUXUXUXUXUXUXUXUXUXUX",
"UXUXUXUXUXUXUXUXUXUXUXUXUXUXUXUXUXUXUXUXUXUXUXUXUXUXUXX.>X#X@X$X$X%X%X0XpX_ 4 UXUXUXUXUXUXUXUXUXUXUXUXUXUXUXUXUXUXUXUXUXUXUXUXUX",
"UXUXUXUXUXUXUXUXUXUXUXUXUXUXUXUXUXUXUXUXUXUXUXUXUXUXUX` .X[.)._._.'. X7X:XF $ UXUXUXUXUXUXUXUXUXUXUXUXUXUXUXUXUXUXUXUXUXUXUXUXUX",
"UXUXUXUXUXUXUXUXUXUXUXUXUXUXUXUXUXUXUXUXUXUXUXUXUXUXUXc {.b.d.g.b.u.b.K.4XzXu UXUXUXUXUXUXUXUXUXUXUXUXUXUXUXUXUXUXUXUXUXUXUXUXUX",
"UXUXUXUXUXUXUXUXUXUXUXUXUXUXUXUXUXUXUXUXUXUXUXUXUXUXUXk aXr.;.%.>.%.;.;.8.].OXy UXUXUXUXUXUXUXUXUXUXUXUXUXUXUXUXUXUXUXUXUXUXUXUX",
"UXUXUXUXUXUXUXUXUXUXUXUXUXUXUXUXUXUXUXUXUXUXUXUXUXUXUXf =Xe.%.j.wXk.%.;.;.g.Q.{ UXUXUXUXUXUXUXUXUXUXUXUXUXUXUXUXUXUXUXUXUXUXUXUX",
"UXUXUXUXUXUXUXUXUXUXUXUXUXUXUXUXUXUXUXUXUXUXUXUXUXUXUXl h.i.V.I.7.E.A.;.;.1.G.s.j UXUXUXUXUXUXUXUXUXUXUXUXUXUXUXUXUXUXUXUXUXUXUX",
"UXUXUXUXUXUXUXUXUXUXUXUXUXUXUXUXUXUXUXUXUXUXUXUXUXUXUXd 3.J.H.R 5 E L.x.;.;.t.!.' UXUXUXUXUXUXUXUXUXUXUXUXUXUXUXUXUXUXUXUXUXUXUX",
"UXUXUXUXUXUXUXUXUXUXUXUXUXUXUXUXUXUXUXUXUXUXUXUXUXUXUX8 C.iXI # UX= } oX9.;.;.W. .% UXUXUXUXUXUXUXUXUXUXUXUXUXUXUXUXUXUXUXUXUXUX",
"UXUXUXUXUXUXUXUXUXUXUXUXUXUXUXUXUXUXUXUXUXUXUXUXUXUXUX* :.P + UXUXUXL P.b.;.=.D.`.r UXUXUXUXUXUXUXUXUXUXUXUXUXUXUXUXUXUXUXUXUXUX",
"UXUXUXUXUXUXUXUXUXUXUXUXUXUXUXUXUXUXUXUXUXUXUXUXUXUXUX- 9 > UXUXUXUXi $.U.6.;.c.a.v UXUXUXUXUXUXUXUXUXUXUXUXUXUXUXUXUXUXUXUXUXUX",
"UXUXUXUXUXUXUXUXUXUXUXUXUXUXUXUXUXUXUXUXUXUXUXUXUXUXUX  X UXUXUXUXUXUXY S.0.;.z.m.n UXUXUXUXUXUXUXUXUXUXUXUXUXUXUXUXUXUXUXUXUXUX",
"UXUXUXUXUXUXUXUXUXUXUXUXUXUXUXUXUXUXUXUXUXUXUXUXUXUXUXUXUXUXUXUXUXUXUXD Z.w.,.M.5.a UXUXUXUXUXUXUXUXUXUXUXUXUXUXUXUXUXUXUXUXUXUX",
"UXUXUXUXUXUXUXUXUXUXUXUXUXUXUXUXUXUXUXUXUXUXUXUXUXUXUXUXUXUXUXUXUXUXUXS }.;.%.(.F.1 UXUXUXUXUXUXUXUXUXUXUXUXUXUXUXUXUXUXUXUXUXUX",
"UXUXUXUXUXUXUXUXUXUXUXUXUXUXUXUXUXUXUXUXUXUXUXUXUXUXUXUXUXUXUXUXUXUX@ Z /.<.n.~.x UXUXUXUXUXUXUXUXUXUXUXUXUXUXUXUXUXUXUXUXUXUXUX",
"UXUXUXUXUXUXUXUXUXUXUXUXUXUXUXUXUXUXUXUXUXUXUXUXUXUXUXUXUXUXUXUXUXUXg O.i.2.l.+.h UXUXUXUXUXUXUXUXUXUXUXUXUXUXUXUXUXUXUXUXUXUXUX",
"UXUXUXUXUXUXUXUXUXUXUXUXUXUXUXUXUXUXUXUXUXUXUXUXUXUXUXUXUXUXUXUXUX7 K -.y.i.4.C UXUXUXUXUXUXUXUXUXUXUXUXUXUXUXUXUXUXUXUXUXUXUXUX",
"UXUXUXUXUXUXUXUXUXUXUXUXUXUXUXUXUXUXUXUXUXUXUXUXUXUXUXUXUXUXUXUXq A @.v.q.*.V : UXUXUXUXUXUXUXUXUXUXUXUXUXUXUXUXUXUXUXUXUXUXUXUX",
"UXUXUXUXUXUXUXUXUXUXUXUXUXUXUXUXUXUXUXUXUXUXUXUXUXUXUXUX2 6 s B ..p.T.f.| b . UXUXUXUXUXUXUXUXUXUXUXUXUXUXUXUXUXUXUXUXUXUXUXUXUX",
"UXUXUXUXUXUXUXUXUXUXUXUXUXUXUXUXUXUXUXUXUXUXUXUXUXUXUXUXUXt J ) / ( Q e w UXUXUXUXUXUXUXUXUXUXUXUXUXUXUXUXUXUXUXUXUXUXUXUXUXUXUX",
"UXUXUXUXUXUXUXUXUXUXUXUXUXUXUXUXUXUXUXUXUXUXUXUXUXUXUXUXUXUXUXUX; 3 UXUXUXUXUXUXUXUXUXUXUXUXUXUXUXUXUXUXUXUXUXUXUXUXUXUXUXUXUXUX",
"UXUXUXUXUXUXUXUXUXUXUXUXUXUXUXUXUXUXUXUXUXUXUXUXUXUXUXUXUXUXUXUXUXUXUXUXUXUXUXUXUXUXUXUXUXUXUXUXUXUXUXUXUXUXUXUXUXUXUXUXUXUXUXUX",
"UXUXUXUXUXUXUXUXUXUXUXUXUXUXUXUXUXUXUXUXUXUXUXUXUXUXUXUXUXUXUXUXUXUXUXUXUXUXUXUXUXUXUXUXUXUXUXUXUXUXUXUXUXUXUXUXUXUXUXUXUXUXUXUX",
"UXUXUXUXUXUXUXUXUXUXUXUXUXUXUXUXUXUXUXUXUXUXUXUXUXUXUXUXUXUXUXUXUXUXUXUXUXUXUXUXUXUXUXUXUXUXUXUXUXUXUXUXUXUXUXUXUXUXUXUXUXUXUXUX",
"UXUXUXUXUXUXUXUXUXUXUXUXUXUXUXUXUXUXUXUXUXUXUXUXUXUXUXUXUXUXUXUXUXUXUXUXUXUXUXUXUXUXUXUXUXUXUXUXUXUXUXUXUXUXUXUXUXUXUXUXUXUXUXUX",
"UXUXUXUXUXUXUXUXUXUXUXUXUXUXUXUXUXUXUXUXUXUXUXUXUXUXUXUXUXUXUXUXUXUXUXUXUXUXUXUXUXUXUXUXUXUXUXUXUXUXUXUXUXUXUXUXUXUXUXUXUXUXUXUX",
"UXUXUXUXUXUXUXUXUXUXUXUXUXUXUXUXUXUXUXUXUXUXUXUXUXUXUXUXUXUXUXUXUXUXUXUXUXUXUXUXUXUXUXUXUXUXUXUXUXUXUXUXUXUXUXUXUXUXUXUXUXUXUXUX",
"UXUXUXUXUXUXUXUXUXUXUXUXUXUXUXUXUXUXUXUXUXUXUXUXUXUXUXUXUXUXUXUXUXUXUXUXUXUXUXUXUXUXUXUXUXUXUXUXUXUXUXUXUXUXUXUXUXUXUXUXUXUXUXUX",
"UXUXUXUXUXUXUXUXUXUXUXUXUXUXUXUXUXUXUXUXUXUXUXUXUXUXUXUXUXUXUXUXUXUXUXUXUXUXUXUXUXUXUXUXUXUXUXUXUXUXUXUXUXUXUXUXUXUXUXUXUXUXUXUX",
"UXUXUXUXUXUXUXUXUXUXUXUXUXUXUXUXUXUXUXUXUXUXUXUXUXUXUXUXUXUXUXUXUXUXUXUXUXUXUXUXUXUXUXUXUXUXUXUXUXUXUXUXUXUXUXUXUXUXUXUXUXUXUXUX",
"UXUXUXUXUXUXUXUXUXUXUXUXUXUXUXUXUXUXUXUXUXUXUXUXUXUXUXUXUXUXUXUXUXUXUXUXUXUXUXUXUXUXUXUXUXUXUXUXUXUXUXUXUXUXUXUXUXUXUXUXUXUXUXUX",
"UXUXUXUXUXUXUXUXUXUXUXUXUXUXUXUXUXUXUXUXUXUXUXUXUXUXUXUXUXUXUXUXUXUXUXUXUXUXUXUXUXUXUXUXUXUXUXUXUXUXUXUXUXUXUXUXUXUXUXUXUXUXUXUX",
"UXUXUXUXUXUXUXUXUXUXUXUXUXUXUXUXUXUXUXUXUXUXUXUXUXUXUXUXUXUXUXUXUXUXUXUXUXUXUXUXUXUXUXUXUXUXUXUXUXUXUXUXUXUXUXUXUXUXUXUXUXUXUXUX",
"UXUXUXUXUXUXUXUXUXUXUXUXUXUXUXUXUXUXUXUXUXUXUXUXUXUXUXUXUXUXUXUXUXUXUXUXUXUXUXUXUXUXUXUXUXUXUXUXUXUXUXUXUXUXUXUXUXUXUXUXUXUXUXUX",
"UXUXUXUXUXUXUXUXUXUXUXUXUXUXUXUXUXUXUXUXUXUXUXUXUXUXUXUXUXUXUXUXUXUXUXUXUXUXUXUXUXUXUXUXUXUXUXUXUXUXUXUXUXUXUXUXUXUXUXUXUXUXUXUX",
"UXUXUXUXUXUXUXUXUXUXUXUXUXUXUXUXUXUXUXUXUXUXUXUXUXUXUXUXUXUXUXUXUXUXUXUXUXUXUXUXUXUXUXUXUXUXUXUXUXUXUXUXUXUXUXUXUXUXUXUXUXUXUXUX",
"UXUXUXUXUXUXUXUXUXUXUXUXUXUXUXUXUXUXUXUXUXUXUXUXUXUXUXUXUXUXUXUXUXUXUXUXUXUXUXUXUXUXUXUXUXUXUXUXUXUXUXUXUXUXUXUXUXUXUXUXUXUXUXUX",
"UXUXUXUXUXUXUXUXUXUXUXUXUXUXUXUXUXUXUXUXUXUXUXUXUXUXUXUXUXUXUXUXUXUXUXUXUXUXUXUXUXUXUXUXUXUXUXUXUXUXUXUXUXUXUXUXUXUXUXUXUXUXUXUX",
"UXUXUXUXUXUXUXUXUXUXUXUXUXUXUXUXUXUXUXUXUXUXUXUXUXUXUXUXUXUXUXUXUXUXUXUXUXUXUXUXUXUXUXUXUXUXUXUXUXUXUXUXUXUXUXUXUXUXUXUXUXUXUXUX",
"UXUXUXUXUXUXUXUXUXUXUXUXUXUXUXUXUXUXUXUXUXUXUXUXUXUXUXUXUXUXUXUXUXUXUXUXUXUXUXUXUXUXUXUXUXUXUXUXUXUXUXUXUXUXUXUXUXUXUXUXUXUXUXUX"
};
