/* XPM */
static char *FavoritesNav[] = {
/* columns rows colors chars-per-pixel */
"16 16 92 1",
"  c #530504",
". c #6F100E",
"X c #98120E",
"o c #871612",
"O c #9A1A17",
"+ c #9C1A16",
"@ c #9C1C18",
"# c #9D2118",
"$ c #A7221C",
"% c #A9231B",
"& c #B4321F",
"* c #9B2621",
"= c #A62E21",
"- c #AF2A22",
"; c #AC2A24",
": c #B62D24",
"> c #BA2A20",
", c #AF3423",
"< c #AF342D",
"1 c #BD3321",
"2 c #BB3026",
"3 c #BF3227",
"4 c #B03927",
"5 c #BF3328",
"6 c #BA342A",
"7 c #BE342A",
"8 c #C71706",
"9 c #C71807",
"0 c #C81908",
"q c #C81B09",
"w c #C81C09",
"e c #C81D09",
"r c #C91F0B",
"t c #C9220C",
"y c #C9200F",
"u c #CA2010",
"i c #CA2111",
"p c #C92313",
"a c #CA2212",
"s c #CA2413",
"d c #CC2C10",
"f c #CC2B14",
"g c #CD2F15",
"h c #C8291A",
"j c #C9291A",
"k c #CB2A1A",
"l c #CF3715",
"z c #D03B17",
"x c #D03918",
"c c #D13D1F",
"v c #C93123",
"b c #CE3F27",
"n c #B94632",
"m c #BE4D37",
"M c #D2441E",
"N c #D3451F",
"B c #C64628",
"V c #D24320",
"C c #D34620",
"Z c #D24622",
"A c #D24524",
"S c #D44922",
"D c #D54F27",
"F c #D54F28",
"G c #D54E2A",
"H c #D55029",
"J c #D5522A",
"K c #D6542C",
"L c #D6562F",
"P c #C74F32",
"I c #C24F37",
"U c #CD5131",
"Y c #C4553B",
"T c #CF5E3F",
"R c #D85A33",
"E c #D85B33",
"W c #D85B34",
"Q c #D85C35",
"! c #D85E37",
"~ c #DA613A",
"^ c #DA643C",
"/ c #DA653D",
"( c #CC6144",
") c #CF6345",
"_ c #D46341",
"` c #D16647",
"' c #DA6741",
"] c #D76945",
"[ c #DB6A43",
"{ c #DC6D46",
"} c #D36A4A",
"| c None",
/* pixels */
"||||||||||||||||",
"||||||||||||||||",
"|||4(}Y=#m`)n|||",
"||,]{[[_T'//'I||",
"||P~!!WERLFAcb%|",
"||UKJFDDAgrq9a-|",
"||BSNNNxt9898h$|",
"||&Vzldq9988a2||",
"|||1fw9999qr5+||",
"|||X>p9998p7O|||",
"|||||:jq8svO||||",
"||||||;vh6o|||||",
"|||||||*<.||||||",
"|||||||| |||||||",
"||||||||||||||||",
"||||||||||||||||"
};
