/* XPM */
static char *Favorites[] = {
/* columns rows colors chars-per-pixel */
"24 24 192 2",
"   c #5A0101",
".  c #670303",
"X  c #6F0605",
"o  c #780605",
"O  c #870403",
"+  c #8B0604",
"@  c #8C0704",
"#  c #880907",
"$  c #8B0A07",
"%  c #800C0A",
"&  c #8D0B08",
"*  c #8E0B09",
"=  c #8F0B0A",
"-  c #8E0C08",
";  c #8E0D09",
":  c #8F0E09",
">  c #8F0D0B",
",  c #900E0A",
"<  c #910F0D",
"1  c #91100B",
"2  c #91110C",
"3  c #92120D",
"4  c #91120E",
"5  c #93140F",
"6  c #901613",
"7  c #931613",
"8  c #991511",
"9  c #9A1B13",
"0  c #9F1E13",
"q  c #9A1D15",
"w  c #9F1F1A",
"e  c #A02217",
"r  c #A2271B",
"t  c #A7251F",
"y  c #AA221A",
"u  c #AE261D",
"i  c #A42A1E",
"p  c #AC2A1D",
"a  c #AC2620",
"s  c #A22925",
"d  c #AE2D26",
"f  c #A92E29",
"g  c #B12C25",
"h  c #A93325",
"j  c #AE3424",
"k  c #AF322C",
"l  c #AF3829",
"z  c #B73722",
"x  c #B5332C",
"c  c #B3342E",
"v  c #B5352E",
"b  c #BA342C",
"n  c #B53A33",
"m  c #BB3A31",
"M  c #BE3E35",
"N  c #C71706",
"B  c #C71707",
"V  c #C71807",
"C  c #C71908",
"Z  c #C81908",
"A  c #C81A09",
"S  c #C81B09",
"D  c #C81B0A",
"F  c #C81C09",
"G  c #C81C0B",
"H  c #C81D0C",
"J  c #C91E0D",
"K  c #C91F0E",
"L  c #CA230B",
"P  c #C9200C",
"I  c #CA230C",
"U  c #CC280E",
"Y  c #CA2610",
"T  c #CA2414",
"R  c #CB2514",
"E  c #CB2515",
"W  c #CB2910",
"Q  c #CD2C11",
"!  c #CC2C14",
"~  c #CB2D1D",
"^  c #CC2E1E",
"/  c #CD3317",
"(  c #CE3514",
")  c #CF3515",
"_  c #CF371A",
"`  c #D03816",
"'  c #D03A16",
"]  c #D13E1A",
"[  c #D13F1B",
"{  c #D23F1B",
"}  c #CB3123",
"|  c #CD3526",
" . c #CD3627",
".. c #CA3629",
"X. c #CE3728",
"o. c #CE3729",
"O. c #CD382A",
"+. c #C83A2E",
"@. c #CD3B2E",
"#. c #C43C32",
"$. c #C93D31",
"%. c #CD3E31",
"&. c #BC432B",
"*. c #B84532",
"=. c #B94733",
"-. c #D2401B",
";. c #D2411B",
":. c #D3451F",
">. c #CF4127",
",. c #CE4A2C",
"<. c #C84C2E",
"1. c #D34620",
"2. c #D34720",
"3. c #D34721",
"4. c #D34624",
"5. c #D34821",
"6. c #D34822",
"7. c #D44922",
"8. c #D34826",
"9. c #D44D25",
"0. c #D44D26",
"q. c #D54D26",
"w. c #D54D27",
"e. c #D54E27",
"r. c #D44B28",
"t. c #D54C28",
"y. c #D54F28",
"u. c #D54F2B",
"i. c #D55029",
"p. c #D55129",
"a. c #D5522B",
"s. c #D6532C",
"d. c #D6542D",
"f. c #D6552D",
"g. c #D6542E",
"h. c #D7552E",
"j. c #D7562F",
"k. c #CC4033",
"l. c #D24F35",
"z. c #CF5637",
"x. c #C1513B",
"c. c #C4563D",
"v. c #C7573F",
"b. c #CD5738",
"n. c #D75730",
"m. c #D75831",
"M. c #D75931",
"N. c #D75A32",
"B. c #D75A33",
"V. c #D85B35",
"C. c #D85C34",
"Z. c #D85C35",
"A. c #D85D35",
"S. c #D85E36",
"D. c #D95E37",
"F. c #D95F38",
"G. c #D86038",
"H. c #D96038",
"J. c #D96039",
"K. c #D96139",
"L. c #D9613A",
"P. c #D9623A",
"I. c #DA663E",
"U. c #DA663F",
"Y. c #CA5046",
"T. c #C65840",
"R. c #CB6046",
"E. c #CF6346",
"W. c #DB6640",
"Q. c #DA6740",
"!. c #DB6740",
"~. c #D66846",
"^. c #DA6841",
"/. c #DB6B44",
"(. c #DB6B45",
"). c #D86A47",
"_. c #DC6A45",
"`. c #DB6C46",
"'. c #DC6D46",
"]. c #DC6E47",
"[. c #D16A4D",
"{. c #D76E4C",
"}. c #D86E4B",
"|. c #DC714A",
" X c #DD724C",
".X c #DD724D",
"XX c #DC724F",
"oX c #D56F50",
"OX c #D57051",
"+X c #D77253",
"@X c #DE7550",
"#X c None",
/* pixels */
"#X#X#X#X#X#X#X#X#X#X#X#X#X#X#X#X#X#X#X#X#X#X#X#X",
"#X#X#X#X#X#X#X#X#X#X#X#X#X#X#X#X#X#X#X#X#X#X#X#X",
"#X#X#X#X#X#X; 4 4 ; #X#X#X#X#X4 4 ; #X#X#X#X#X#X",
"#X#X#X#X#Xr c.OX{.x.i $ #Xq *.[.OXE.l 5 #X#X#X#X",
"#X#X#X#Xj {.@X.X|..X|.*.h E..X).).'.@Xv.9 #X#X#X",
"#X#X#Xe ~.'.^.!.!.I.I.).).!.J.J.L.F.F.).v.1 #X#X",
"#X#X#X&.!.J.J.F.A.A.A.A.V.V.C.M.a.u.y.8.l.y #X#X",
"#X#X; b.V.M.M.n.n.n.h.a.s.a.8.` ! U K Z E b #X#X",
"#X#X; z.s.s.s.y.w.w.0.0.5./ I B B B V V R m #X#X",
"#X#X; <.q.5.2.2.2.:.:.{ W C B B V B V V ~ g #X#X",
"#X#X#Xz q.{ ;.;.{ { ( I V V B V B Z B G $.8 #X#X",
"#X#X#X0 ,.{ ' ( ( U F V V V V V Z B Z X.d #X#X#X",
"#X#X#X#Xp >.Q L F V V V V V V V B C X.c * #X#X#X",
"#X#X#X#X@ u } K V V V V V V V V C X.c < #X#X#X#X",
"#X#X#X#X#X+ u ..K B V V V V B C X.v ; #X#X#X#X#X",
"#X#X#X#X#X#XO t +.R B V V V H @.c , #X#X#X#X#X#X",
"#X#X#X#X#X#X#X#Xw #.^ C B K %.k # #X#X#X#X#X#X#X",
"#X#X#X#X#X#X#X#X#X7 M X.R k.f o #X#X#X#X#X#X#X#X",
"#X#X#X#X#X#X#X#X#X#X% n Y.s . #X#X#X#X#X#X#X#X#X",
"#X#X#X#X#X#X#X#X#X#X#XX 7   #X#X#X#X#X#X#X#X#X#X",
"#X#X#X#X#X#X#X#X#X#X#X#X#X#X#X#X#X#X#X#X#X#X#X#X",
"#X#X#X#X#X#X#X#X#X#X#X#X#X#X#X#X#X#X#X#X#X#X#X#X",
"#X#X#X#X#X#X#X#X#X#X#X#X#X#X#X#X#X#X#X#X#X#X#X#X",
"#X#X#X#X#X#X#X#X#X#X#X#X#X#X#X#X#X#X#X#X#X#X#X#X"
};
