/* XPM */
static char *Forward[] = {
/* columns rows colors chars-per-pixel */
"24 24 164 2",
"   c #326004",
".  c #326204",
"X  c #336504",
"o  c #356604",
"O  c #346704",
"+  c #366A04",
"@  c #366B04",
"#  c #376C04",
"$  c #376C05",
"%  c #3A7305",
"&  c #3B7405",
"*  c #3D7408",
"=  c #40780B",
"-  c #407010",
";  c #497C18",
":  c #4F9C03",
">  c #4F9C04",
",  c #559F0B",
"<  c #539C0C",
"1  c #53A106",
"2  c #54A307",
"3  c #56A608",
"4  c #58A70A",
"5  c #59A40E",
"6  c #58A909",
"7  c #59AA08",
"8  c #5AAB0A",
"9  c #5BAD0A",
"0  c #5CAE0A",
"q  c #5DAF0D",
"w  c #5DB00B",
"e  c #5EB20B",
"r  c #5FB30C",
"t  c #5BA511",
"y  c #5EA914",
"u  c #60B40C",
"i  c #60B50C",
"p  c #63B90E",
"a  c #66BE0E",
"s  c #60AC15",
"d  c #61A41F",
"f  c #65AE1E",
"g  c #60B011",
"h  c #61B210",
"j  c #64B317",
"k  c #65BB10",
"l  c #65B11A",
"z  c #68B818",
"x  c #6BBE18",
"c  c #6BBE19",
"v  c #6ABD1A",
"b  c #528520",
"n  c #528620",
"m  c #588C26",
"M  c #598C28",
"N  c #5C8F2B",
"B  c #5E932A",
"V  c #609230",
"C  c #639433",
"Z  c #629434",
"A  c #689C35",
"S  c #669438",
"D  c #669638",
"F  c #67963A",
"G  c #699D38",
"H  c #69983D",
"J  c #62A620",
"K  c #69AF24",
"L  c #68AC26",
"P  c #67A828",
"I  c #68A928",
"U  c #6CAE2B",
"Y  c #69B221",
"T  c #71B52E",
"R  c #6DAB30",
"E  c #70AF33",
"W  c #70AE34",
"Q  c #71AD37",
"!  c #70A33E",
"~  c #76B13C",
"^  c #77B13F",
"/  c #77B23F",
"(  c #78B43E",
")  c #79B53E",
"_  c #79B938",
"`  c #7ABA3C",
"'  c #7CBA3F",
"]  c #71C51E",
"[  c #75C822",
"{  c #76CC21",
"}  c #6E9E41",
"|  c #709F42",
" . c #729F48",
".. c #72A146",
"X. c #78AA46",
"o. c #76A34B",
"O. c #76A04D",
"+. c #77A44D",
"@. c #7CAF4B",
"#. c #7DAF4B",
"$. c #7BB344",
"%. c #7DB547",
"&. c #7BB840",
"*. c #7FB946",
"=. c #7FB749",
"-. c #7AA550",
";. c #7CA654",
":. c #8AD73D",
">. c #80B64B",
",. c #80B64C",
"<. c #81BA49",
"1. c #81BA4A",
"2. c #82BB4A",
"3. c #82B84E",
"4. c #85AE5E",
"5. c #81B152",
"6. c #83B453",
"7. c #83B156",
"8. c #84B555",
"9. c #85B754",
"0. c #86BA51",
"q. c #85B952",
"w. c #86BA53",
"e. c #86BA54",
"r. c #87BA56",
"t. c #89BB57",
"y. c #89BD56",
"u. c #89B75C",
"i. c #8BBD59",
"p. c #8ABC5A",
"a. c #8CBD5B",
"s. c #8BBD5C",
"d. c #8DBE5C",
"f. c #8BB760",
"g. c #8BB563",
"h. c #93B96F",
"j. c #94BA70",
"k. c #95BA71",
"l. c #95BB71",
"z. c #96BB72",
"x. c #97BC73",
"c. c #9ABD77",
"v. c #9BBE7A",
"b. c #83C244",
"n. c #8AC94D",
"m. c #8AC054",
"M. c #8AC154",
"N. c #8ECB52",
"B. c #91C360",
"V. c #91C064",
"C. c #93C066",
"Z. c #94CA60",
"A. c #96C369",
"S. c #96C36B",
"D. c #99C56E",
"F. c #9CD167",
"G. c #9BC474",
"H. c #A2C87E",
"J. c #A4C783",
"K. c #A2C284",
"L. c #ABCF87",
"P. c #AAC88B",
"I. c #AFCF90",
"U. c None",
/* pixels */
"U.U.U.U.U.U.U.U.U.U.U.U.U.U.U.U.U.U.U.U.U.U.U.U.",
"U.U.U.U.U.U.U.U.U.U.U.U.U.U.U.U.U.U.U.U.U.U.U.U.",
"U.U.U.U.U.U.U.U.U.U.U.U.U.U.U.U.U.U.U.U.U.U.U.U.",
"U.U.U.U.U.U.U.U.U.U.U.= U.U.U.U.U.U.U.U.U.U.U.U.",
"U.U.U.U.U.U.U.U.U.U.% O.S U.U.U.U.U.U.U.U.U.U.U.",
"U.U.U.U.U.U.U.U.U.U.U.K.P.H U.U.U.U.U.U.U.U.U.U.",
"U.U.U.U.U.U.U.U.U.U.U.v.L.J. .U.U.U.U.U.U.U.U.U.",
"U.U.U.U.U.U.U.U.U.U.& c.D.S.H.;.U.U.U.U.U.U.U.U.",
"U.U.U.U.S j.j.j.k.k.x.I.V.t.p.G.4.n U.U.U.U.U.U.",
"U.U.U.U.-.S.q.t.p.d.d.i.0.3.,.,.h.f.m U.U.U.U.U.",
"U.U.U.U.+.p.$.$.%.=.1.1.1.*.) R R ,.f.Z U.U.U.U.",
"U.U.U.U.+.e.R ~ ) &.' ` T f y t , < P u.D U.U.U.",
"U.U.U.U...$.d L Y Y l h w q 7 3 1 > d 8.C U.U.U.",
"U.U.U.U.} I : 2 4 0 w r i w 0 9 5 U @.N U.U.U.U.",
"U.U.U.U.| W t y l z c c k p i h _ %.n U.U.U.U.U.",
"U.U.U.U.V 6.5.6.e.e.y.F.] a c b.X.; U.U.U.U.U.U.",
"U.U.U.U.# @ @ . . . # y.{ [ n.! - U.U.U.U.U.U.U.",
"U.U.U.U.U.U.U.U.U.U.. m.:.N.A U.U.U.U.U.U.U.U.U.",
"U.U.U.U.U.U.U.U.U.U.o B.Z.B U.U.U.U.U.U.U.U.U.U.",
"U.U.U.U.U.U.U.U.U.U.@ G m U.U.U.U.U.U.U.U.U.U.U.",
"U.U.U.U.U.U.U.U.U.U.U.* U.U.U.U.U.U.U.U.U.U.U.U.",
"U.U.U.U.U.U.U.U.U.U.U.U.U.U.U.U.U.U.U.U.U.U.U.U.",
"U.U.U.U.U.U.U.U.U.U.U.U.U.U.U.U.U.U.U.U.U.U.U.U.",
"U.U.U.U.U.U.U.U.U.U.U.U.U.U.U.U.U.U.U.U.U.U.U.U."
};
