/* XPM */
static char *GlossaryNav[] = {
/* columns rows colors chars-per-pixel */
"16 16 128 2",
"   c #8E908C",
".  c #8F908D",
"X  c #8F918D",
"o  c #949592",
"O  c #979995",
"+  c #9FA19D",
"@  c #A0A19D",
"#  c #A1A39F",
"$  c #A2A4A0",
"%  c #A4A5A2",
"&  c #A4A6A2",
"*  c #A5A6A2",
"=  c #C8C8C8",
"-  c #C9C9C9",
";  c #CACACA",
":  c #CBCBCA",
">  c #CBCBCB",
",  c #CCCCCC",
"<  c #CDCDCD",
"1  c #CECECE",
"2  c #CFCFCF",
"3  c #D0D0CF",
"4  c #D1D1D0",
"5  c #D1D1D1",
"6  c #D2D2D1",
"7  c #D2D2D2",
"8  c #D3D3D2",
"9  c #D3D3D3",
"0  c #D4D4D3",
"q  c #D8D8D6",
"w  c #D9D9D9",
"e  c #DBDBD9",
"r  c #DCDCDB",
"t  c #DCDCDC",
"y  c #DDDDDD",
"u  c #DDDEDC",
"i  c #DEDEDE",
"p  c #DFDFDE",
"a  c #DFDFDF",
"s  c #E0E0DE",
"d  c #E0E0E0",
"f  c #E1E1E1",
"g  c #E1E2E1",
"h  c #E2E2E1",
"j  c #E3E3E1",
"k  c #E2E2E2",
"l  c #E3E3E2",
"z  c #E3E3E3",
"x  c #E3E4E2",
"c  c #E4E4E1",
"v  c #E4E4E2",
"b  c #E5E5E2",
"n  c #E4E4E3",
"m  c #E4E5E3",
"M  c #E5E5E3",
"N  c #E5E5E4",
"B  c #E5E5E5",
"V  c #E6E6E4",
"C  c #E6E6E5",
"Z  c #E6E6E6",
"A  c #E7E7E6",
"S  c #E7E7E7",
"D  c #E8E8E7",
"F  c #E8E8E8",
"G  c #E8E9E8",
"H  c #E9E9E8",
"J  c #E9E9E9",
"K  c #EAEAE9",
"L  c #EAEAEA",
"P  c #EAEBEA",
"I  c #EBEBEB",
"U  c #ECECEB",
"Y  c #ECECEC",
"T  c #ECEDEC",
"R  c #EDEDEC",
"E  c #EDEDED",
"W  c #EDEEEC",
"Q  c #EEEEED",
"!  c #F1F1F1",
"~  c #F3F3F2",
"^  c #F9F9F8",
"/  c #FAFAF9",
"(  c None",
")  c #000000",
"_  c #000000",
"`  c #000000",
"'  c #000000",
"]  c #000000",
"[  c #000000",
"{  c #000000",
"}  c #000000",
"|  c #000000",
" . c #000000",
".. c #000000",
"X. c #000000",
"o. c #000000",
"O. c #000000",
"+. c #000000",
"@. c #000000",
"#. c #000000",
"$. c #000000",
"%. c #000000",
"&. c #000000",
"*. c #000000",
"=. c #000000",
"-. c #000000",
";. c #000000",
":. c #000000",
">. c #000000",
",. c #000000",
"<. c #000000",
"1. c #000000",
"2. c #000000",
"3. c #000000",
"4. c #000000",
"5. c #000000",
"6. c #000000",
"7. c #000000",
"8. c #000000",
"9. c #000000",
"0. c #000000",
"q. c #000000",
"w. c #000000",
"e. c #000000",
"r. c #000000",
"t. c #000000",
"y. c #000000",
"u. c #000000",
/* pixels */
"( ( @ $ @ $ $ $ $ $ $ $ $ @ ( ( ",
"( ( g W W U W W U W U I W g @ ( ",
"( ( W / / / / / / / / / ^ W * ( ",
"( ( W Z 8 8 8 8 8 8 8 8 g U * ( ",
"( ( W ~ U W W W P P P P W P * ( ",
"( ( W Z 8 9 8 8 8 8 8 < g P * ( ",
"( ( W ~ W U P P P Z Z Z P D * ( ",
"( ( W Z 8 8 8 3 8 < < < y D * ( ",
"( ( L ~ P P Z Z Z g g g Z Z * ( ",
"( ( W z 3 4 3 < < , : : w Z * ( ",
"( ( L W Z z z z g a a y g Z * ( ",
"( ( P a < < < : : : : = q Z * ( ",
"( ( P P g a a a y y e e y b * ( ",
"( ( Z L P P P Z D b Z b c g * ( ",
"( O a Z Z x Z b b b b g g y o ( ",
"( ( X                   X   ( ( "
};
