/* XPM */
static char *HistoryNav[] = {
/* columns rows colors chars-per-pixel */
"16 16 256 2",
"   c #8E5029",
".  c #877454",
"X  c #B87052",
"o  c #D75848",
"O  c #AF8435",
"+  c #A98238",
"@  c #C19033",
"#  c #C59438",
"$  c #C9983E",
"%  c #A58445",
"&  c #AE8559",
"*  c #AA8F5C",
"=  c #B99654",
"-  c #BD9B57",
";  c #8A8479",
":  c #B49965",
">  c #BC9C60",
",  c #AC9971",
"<  c #A99B7F",
"1  c #B5A16F",
"2  c #C99C4C",
"3  c #C6AA67",
"4  c #828282",
"5  c #858585",
"6  c #9C9996",
"7  c #999A98",
"8  c #9B9B9B",
"9  c #9C9C9B",
"0  c #9C9C9C",
"q  c #B79D86",
"w  c #B6A486",
"e  c #B0A48E",
"r  c #B5AA93",
"t  c #9DA2A3",
"y  c #84A0BF",
"u  c #94AABF",
"i  c #9EACBB",
"p  c #A0A0A0",
"a  c #A3A2A0",
"s  c #A2A2A3",
"d  c #A3A3A3",
"f  c #A7A8A5",
"g  c #A4AAAD",
"h  c #A9A9A8",
"j  c #A9A9A9",
"k  c #AAAAAA",
"l  c #AAACA8",
"z  c #ACACAA",
"x  c #ADAEAB",
"c  c #ACACAC",
"v  c #ADADAD",
"b  c #AEAEAD",
"n  c #AFAFAF",
"m  c #AEB0AE",
"M  c #BCB3A0",
"N  c #BAB3A6",
"B  c #B1B0AD",
"V  c #B1B2AF",
"C  c #B1B1B1",
"Z  c #B2B3B1",
"A  c #B2B2B2",
"S  c #B3B3B3",
"D  c #B3B4B2",
"F  c #B4B5B2",
"G  c #B4B5B3",
"H  c #B4B4B4",
"J  c #B7B8B7",
"K  c #B8B8B7",
"L  c #B7B9B8",
"P  c #B8B8B8",
"I  c #BABABA",
"U  c #BDBDBB",
"Y  c #BDBDBD",
"T  c #BDBDBE",
"R  c #BEBEBE",
"E  c #BFBFBE",
"W  c #BFBFBF",
"Q  c #CDA296",
"!  c #C1B59D",
"~  c #C5BDAE",
"^  c #C0BFBE",
"/  c #BFC1BF",
"(  c #CCC1AC",
")  c #C7C2B9",
"_  c #C1C3BE",
"`  c #C9C5BC",
"'  c #83A2C6",
"]  c #8FABCB",
"[  c #92AAC7",
"{  c #96ACC5",
"}  c #92ACCA",
"|  c #9AB1CB",
" . c #9EB1C8",
".. c #98B2D1",
"X. c #9CB6D4",
"o. c #A2B6CD",
"O. c #A1B6CF",
"+. c #A7B8CA",
"@. c #B2BBC3",
"#. c #B2BFCB",
"$. c #A1B9D4",
"%. c #A0BAD7",
"&. c #ABBED2",
"*. c #BCC1C5",
"=. c #BFC4C6",
"-. c #BEC4C8",
";. c #BFC6C9",
":. c #ADC2D7",
">. c #AFC4DC",
",. c #B3C1D1",
"<. c #BFCCDA",
"1. c #C1C1C0",
"2. c #C1C1C1",
"3. c #C2C2C2",
"4. c #C3C3C2",
"5. c #C3C3C3",
"6. c #C4C5C2",
"7. c #C3C8CA",
"8. c #C8C8C8",
"9. c #CACACA",
"0. c #CBCACA",
"q. c #CBCCC9",
"w. c #CCCDCA",
"e. c #CCCCCB",
"r. c #CBCDCC",
"t. c #CCCCCC",
"y. c #CECECE",
"u. c #CFCFCF",
"i. c #D0D0D0",
"p. c #D4D4D4",
"a. c #D5D5D4",
"s. c #DEDAD1",
"d. c #DAD8D4",
"f. c #D8D8D8",
"g. c #D9DADA",
"h. c #DBDBDB",
"j. c #DFDDD8",
"k. c #C2D1E1",
"l. c #C5D5E7",
"z. c #CFDCEA",
"x. c #D0DCE8",
"c. c #D9E4EF",
"v. c #DEE7F0",
"b. c #E3E3E3",
"n. c #E3E4E4",
"m. c #E5E5E4",
"M. c #E4E4E5",
"N. c #E7E7E7",
"B. c #E8E8E8",
"V. c #EAE9E8",
"C. c #EBEBEB",
"Z. c #EBECEC",
"A. c #ECECEC",
"S. c #EDEEEE",
"D. c #EEEEEE",
"F. c #F0F0F0",
"G. c #F5F5F5",
"H. c #F5F5F6",
"J. c #F6F6F7",
"K. c #F8F9F9",
"L. c None",
"P. c #000000",
"I. c #000000",
"U. c #000000",
"Y. c #000000",
"T. c #000000",
"R. c #000000",
"E. c #000000",
"W. c #000000",
"Q. c #000000",
"!. c #000000",
"~. c #000000",
"^. c #000000",
"/. c #000000",
"(. c #000000",
"). c #000000",
"_. c #000000",
"`. c #000000",
"'. c #000000",
"]. c #000000",
"[. c #000000",
"{. c #000000",
"}. c #000000",
"|. c #000000",
" X c #000000",
".X c #000000",
"XX c #000000",
"oX c #000000",
"OX c #000000",
"+X c #000000",
"@X c #000000",
"#X c #000000",
"$X c #000000",
"%X c #000000",
"&X c #000000",
"*X c #000000",
"=X c #000000",
"-X c #000000",
";X c #000000",
":X c #000000",
">X c #000000",
",X c #000000",
"<X c #000000",
"1X c #000000",
"2X c #000000",
"3X c #000000",
"4X c #000000",
"5X c #000000",
"6X c #000000",
"7X c #000000",
"8X c #000000",
"9X c #000000",
"0X c #000000",
"qX c #000000",
"wX c #000000",
"eX c #000000",
"rX c #000000",
"tX c #000000",
"yX c #000000",
"uX c #000000",
"iX c #000000",
"pX c #000000",
"aX c #000000",
"sX c #000000",
"dX c #000000",
"fX c #000000",
"gX c #000000",
"hX c #000000",
"jX c #000000",
"kX c #000000",
"lX c #000000",
"zX c #000000",
"xX c #000000",
"cX c #000000",
"vX c #000000",
"bX c #000000",
"nX c #000000",
"mX c #000000",
"MX c #000000",
"NX c #000000",
"BX c #000000",
"VX c #000000",
"CX c #000000",
"ZX c #000000",
"AX c #000000",
"SX c #000000",
"DX c #000000",
"FX c #000000",
"GX c #000000",
"HX c #000000",
"JX c #000000",
"KX c #000000",
"LX c #000000",
"PX c #000000",
"IX c #000000",
"UX c #000000",
/* pixels */
"L.L.L.L.L.L.L.L.L.L.L.L.L.L.L.L.",
"L.L.Y i.i.9.3.U Y 3.Y I I 7 L.L.",
"L.L.t.N.d.r.7.=.r.a.n.N.A.H L.L.",
"L.L.9.h./ ,.%...o.*.Y a.B.S L.L.",
"L.L.9.9.#.>.c.z.X.| I i.B.H L.L.",
"L.L.3.6.{ l.v.x.:.' g e.A.V L.L.",
"L.L.3.6.u %.k.<.&.y t t.j.q X L.",
"L.L.b F -.] } o.[ i m ` w Q o L.",
"L.L.7 9 S 5.+.o.@.J N : 2 &   L.",
"L.l 0 9 H _ l f J M - $ O . L.L.",
"L._ z F t.8.@._ e = # + ( j L.L.",
"L.L.S b.b.h.i.r - @ % ~ J.n L.L.",
"L.L.S C.A.N.) : 3 * s.H.K.c L.L.",
"L.L.n F.A.C.< , ! d.Z.F.J.c L.L.",
"L.L.5 k k p ; 6 d p p d k 4 L.L.",
"L.L.L.L.L.L.L.L.L.L.L.L.L.L.L.L."
};
