/* XPM */
static char *Home[] = {
/* columns rows colors chars-per-pixel */
"24 24 124 2",
"   c #5E5E5E",
".  c #606060",
"X  c #7E7E7E",
"o  c #B10606",
"O  c #B40A0A",
"+  c #B80F0F",
"@  c #A71919",
"#  c #BB1313",
"$  c #BF1D1D",
"%  c #AE2929",
"&  c #BE3332",
"*  c #C31414",
"=  c #C51818",
"-  c #CA1C1C",
";  c #CB2222",
":  c #C52929",
">  c #CD2E2E",
",  c #D32524",
"<  c #DC2525",
"1  c #D22A2A",
"2  c #DD2D2D",
"3  c #CB3434",
"4  c #CA3C3C",
"5  c #DF3030",
"6  c #D33F3F",
"7  c #D83939",
"8  c #E42525",
"9  c #E82727",
"0  c #E42828",
"q  c #EA2D2D",
"w  c #E43232",
"e  c #E73D3D",
"r  c #EC3B3B",
"t  c #B45252",
"y  c #BD5353",
"u  c #C74D4C",
"i  c #CA4848",
"p  c #D64343",
"a  c #C95454",
"s  c #C75B59",
"d  c #E14747",
"f  c #EF4343",
"g  c #EC4848",
"h  c #F14444",
"j  c #F24B4B",
"k  c #E75454",
"l  c #EF5252",
"z  c #F35252",
"x  c #F35C5C",
"c  c #C96665",
"v  c #C97271",
"b  c #EC6060",
"n  c #F46464",
"m  c #F36C6C",
"M  c #F57575",
"N  c #F67C7C",
"B  c #7E807B",
"V  c #989356",
"C  c #A09A54",
"Z  c #8A896E",
"A  c #81837E",
"S  c #37659F",
"D  c #3869A7",
"F  c #3D6DAA",
"G  c #44658F",
"H  c #5B6D84",
"J  c #416694",
"K  c #5B7290",
"L  c #406FAD",
"P  c #577CAC",
"I  c #728296",
"U  c #72839A",
"Y  c #6C89AE",
"T  c #6288B9",
"R  c #6F92BF",
"E  c #7694BB",
"W  c #7B97BC",
"Q  c #7194C2",
"!  c #848681",
"~  c #878983",
"^  c #888B85",
"/  c #8B8C89",
"(  c #8F908C",
")  c #91938E",
"_  c #8E9196",
"`  c #969696",
"'  c #9D9191",
"]  c #93969A",
"[  c #96989A",
"{  c #989999",
"}  c #A39595",
"|  c #A8A9A7",
" . c #AAAAAA",
".. c #AFB0AE",
"X. c #B6B6B5",
"o. c #BEBEBE",
"O. c #CE8585",
"+. c #CC8B8A",
"@. c #D09C9C",
"#. c #CFA19F",
"$. c #D4A0A0",
"%. c #D5ADAD",
"&. c #D3B6B6",
"*. c #DAB4B4",
"=. c #D3BDBD",
"-. c #DABDBD",
";. c #BFC0BE",
":. c #C0C0BF",
">. c #C5C5C3",
",. c #CECECE",
"<. c #DFC5C5",
"1. c #DACACA",
"2. c #D0D0CF",
"3. c #CFD0D0",
"4. c #D3D3D3",
"5. c #DED4D4",
"6. c #DBDBDB",
"7. c #E2DFDF",
"8. c #DFE0DF",
"9. c #E5E5E5",
"0. c #E8E7E7",
"q. c #E7E8E8",
"w. c #EAEAEA",
"e. c None",
/* pixels */
"e.e.e.e.e.e.e.e.e.e.e.e.e.e.e.e.e.e.e.e.e.e.e.e.",
"e.e.e.e.e.e.e.e.e.e.e.+ # e.e.e.e.e.e.e.e.e.e.e.",
"e.e.e.e.e.e.e.e.e.e.= 5 8 * e.e.e.e.e.e.e.e.e.e.",
"e.e.e.e.e.e.e.e.e.; e f q < * e.e.e.e.e.e.e.e.e.",
"e.e.e.e.e.e.e.e.> g j h q 8 < * e.e.e.e.e.e.e.e.",
"e.e.e.e.e.e.# 7 z z h q 8 9 8 < = e.e.e.e.e.e.e.",
"e.e.e.e.e.$ d x x h 0 > & < 8 8 < = O e.e.e.e.e.",
"e.e.e.e.: k n x h < 4 #.=.s , 8 < < = O e.e.e.e.",
"e.e.e.3 b m n h < u &.6.6.1.v 1 8 < , = O e.e.e.",
"e.# p m M n r 1 c 1.6.9.w.w.6.+.> 8 < , - O e.e.",
"e.4 M N n r > O.5.9.9.w.w.w.w.7.@.3 < < , - + e.",
"e.p N n w 3 $.6.9.q.w.w.w.w.w.w.9.%.4 < < ; # e.",
"e.6 x 0 i *.0.9.q.q.q.q.w.q.q.0.0.9.-.a < < = e.",
"e.; 1 y <.q.9.0.0.0.0.0.w.w.0.0.q.q.q.1.t - * e.",
"e.o % } w.;.| | |  . .X.,.[ ] [ [ ]  .q.' @ o e.",
"e.e.e.[ 0.X.A B B B B | >.I E W E Y ] 0.{ e.e.e.",
"e.e.e.{ 9.2.^ A A ! ! ;.>.U Q Q T P ] 8.{ e.e.e.",
"e.e.e.` 7.6.( ~ ! Z Z >.>.K L F D S _ 6.{ e.e.e.",
"e.e.e.` 8.6.( ! ~ V C >.>.H J J J G _ 6.` e.e.e.",
"e.e.e.` 6.6.( ~ ~ ^ ^ >.4. . . . . .X.6.{ e.e.e.",
"e.e.e.` 6.8.( ^ ^ ^ ^ >.6.6.6.6.6.6.6.3.` e.e.e.",
"e.e.e./ ;.>./ ! ! ! !  .o.o.o.o.o.o.o.X.X e.e.e.",
"e.e.e.e..                               e.e.e.e.",
"e.e.e.e.e.e.e.e.e.e.e.e.e.e.e.e.e.e.e.e.e.e.e.e."
};
