/* XPM */
static char *IndexNav[] = {
/* columns rows colors chars-per-pixel */
"16 16 256 2",
"   c #564E71",
".  c #DD2E2E",
"X  c #DF3130",
"o  c #E43D3C",
"O  c #AF623D",
"+  c #AC5A6A",
"@  c #D04E57",
"#  c #D6565D",
"$  c #E54343",
"%  c #C65763",
"&  c #7D806E",
"*  c #8A9434",
"=  c #96A652",
"-  c #A19F72",
";  c #465681",
":  c #4C5C87",
">  c #526187",
",  c #536389",
"<  c #53638C",
"1  c #53648E",
"2  c #52658F",
"3  c #53658F",
"4  c #55658D",
"5  c #54658F",
"6  c #54668F",
"7  c #59688F",
"8  c #556790",
"9  c #566690",
"0  c #566790",
"q  c #576891",
"w  c #5B6990",
"e  c #5B6A90",
"r  c #5B6A91",
"t  c #5C6B91",
"y  c #5D6B91",
"u  c #7989AA",
"i  c #7B8AAA",
"p  c #909D95",
"a  c #A2A484",
"s  c #9196A9",
"d  c #8A99B6",
"f  c #8D9BB7",
"g  c #8F9EB9",
"h  c #969EB2",
"j  c #9B99B3",
"k  c #9F9ABE",
"l  c #9F9BBE",
"z  c #9F9BBF",
"x  c #A393B8",
"c  c #A395B9",
"v  c #A198BC",
"b  c #A099BD",
"n  c #A09ABD",
"m  c #A29BBE",
"M  c #A29CBF",
"N  c #92A2A7",
"B  c #95A3BE",
"V  c #A0A1BA",
"C  c #AEB3BF",
"Z  c #9E9DC0",
"A  c #9D9FC1",
"S  c #9E9EC1",
"D  c #9F9EC1",
"F  c #9D9FC2",
"G  c #9E9FC2",
"H  c #9CA0C2",
"J  c #9DA0C2",
"K  c #9CA0C3",
"L  c #9BA3C5",
"P  c #9CA2C4",
"I  c #9DA3C4",
"U  c #9BA4C5",
"Y  c #9AA5C6",
"T  c #9BA5C7",
"R  c #9AA6C7",
"E  c #9AA7C7",
"W  c #9CA4C5",
"Q  c #9AA9C2",
"!  c #9BAAC2",
"~  c #9CABC3",
"^  c #9EACC3",
"/  c #98ABC7",
"(  c #9CAAC4",
")  c #9FADC4",
"_  c #99A7C8",
"`  c #9DA7C8",
"'  c #93ABC9",
"]  c #95ACCA",
"[  c #96ADCA",
"{  c #97AECB",
"}  c #97ACCC",
"|  c #96ADCD",
" . c #97AECD",
".. c #95AFCE",
"X. c #98ABCB",
"o. c #99AFCC",
"O. c #99AFCE",
"+. c #94B0CF",
"@. c #95B0CF",
"#. c #9CB1CD",
"$. c #95B1D0",
"%. c #97B2D1",
"&. c #98B3D1",
"*. c #99B3D1",
"=. c #98B3D2",
"-. c #9CB3D1",
";. c #99B4D2",
":. c #9AB4D2",
">. c #9AB5D2",
",. c #9BB5D2",
"<. c #9AB5D3",
"1. c #9BB5D3",
"2. c #9DB5D2",
"3. c #9CB5D3",
"4. c #9BB6D4",
"5. c #9DB6D4",
"6. c #9DB7D4",
"7. c #A2AAC4",
"8. c #A0AEC4",
"9. c #A1AFC5",
"0. c #B0ADCA",
"q. c #A3B1C6",
"w. c #A4B0C6",
"e. c #A8B0C3",
"r. c #A3B0C8",
"t. c #A6B7CF",
"y. c #A8B5CB",
"u. c #AAB6CD",
"i. c #B1B7C6",
"p. c #B0B1CC",
"a. c #B0B4CF",
"s. c #A3B6D0",
"d. c #AEBBD0",
"f. c #AEBBD5",
"g. c #B0BED2",
"h. c #B1BED2",
"j. c #ACC1D9",
"k. c #AEC0D8",
"l. c #ADC3DB",
"z. c #B4C0D4",
"x. c #B5C2D5",
"c. c #B0C5DC",
"v. c #B9C6D8",
"b. c #C5C6C9",
"n. c #C6C6CA",
"m. c #C6C7CA",
"M. c #C7C8CB",
"N. c #D5D7DC",
"B. c #D5D7DD",
"V. c #D6D8DE",
"C. c #D9DBDF",
"Z. c #C3D1E1",
"A. c #C4D2E2",
"S. c #C6D3E2",
"D. c #C6D4E3",
"F. c #C6D5E4",
"G. c #C7D6E4",
"H. c #C8D7E6",
"J. c #C9D8E7",
"K. c #DBDCE1",
"L. c None",
"P. c #000000",
"I. c #000000",
"U. c #000000",
"Y. c #000000",
"T. c #000000",
"R. c #000000",
"E. c #000000",
"W. c #000000",
"Q. c #000000",
"!. c #000000",
"~. c #000000",
"^. c #000000",
"/. c #000000",
"(. c #000000",
"). c #000000",
"_. c #000000",
"`. c #000000",
"'. c #000000",
"]. c #000000",
"[. c #000000",
"{. c #000000",
"}. c #000000",
"|. c #000000",
" X c #000000",
".X c #000000",
"XX c #000000",
"oX c #000000",
"OX c #000000",
"+X c #000000",
"@X c #000000",
"#X c #000000",
"$X c #000000",
"%X c #000000",
"&X c #000000",
"*X c #000000",
"=X c #000000",
"-X c #000000",
";X c #000000",
":X c #000000",
">X c #000000",
",X c #000000",
"<X c #000000",
"1X c #000000",
"2X c #000000",
"3X c #000000",
"4X c #000000",
"5X c #000000",
"6X c #000000",
"7X c #000000",
"8X c #000000",
"9X c #000000",
"0X c #000000",
"qX c #000000",
"wX c #000000",
"eX c #000000",
"rX c #000000",
"tX c #000000",
"yX c #000000",
"uX c #000000",
"iX c #000000",
"pX c #000000",
"aX c #000000",
"sX c #000000",
"dX c #000000",
"fX c #000000",
"gX c #000000",
"hX c #000000",
"jX c #000000",
"kX c #000000",
"lX c #000000",
"zX c #000000",
"xX c #000000",
"cX c #000000",
"vX c #000000",
"bX c #000000",
"nX c #000000",
"mX c #000000",
"MX c #000000",
"NX c #000000",
"BX c #000000",
"VX c #000000",
"CX c #000000",
"ZX c #000000",
"AX c #000000",
"SX c #000000",
"DX c #000000",
"FX c #000000",
"GX c #000000",
"HX c #000000",
"JX c #000000",
"KX c #000000",
"LX c #000000",
"PX c #000000",
"IX c #000000",
"UX c #000000",
/* pixels */
"L.L.L.9 3 3 3 3 3 6 9 9 3 L.L.L.",
"L.L.u g.t.} ' ' { { o.#./ & L.L.",
"L.L.g S.j.&.} L J T { ..-.- L.L.",
"L.L.B D.j.T k H T z k { 2.a L.L.",
"L.L.( G.f.m E z k F D F 5.p * L.",
"L.L.r.H.p.I D D T x T k 2.N = L.",
"L.L.u.J.0.T k L E k D H 4.s O L.",
"L.L.d.J.a.D T m k x D | 4.j # X ",
"L.L.g.G.j.z F T H F { @.;.V @ o ",
"L.L.x.Z.l.o.H m k H | @.%.7.% $ ",
"L.L.v.S.c.5.;.&.=.;.;.;.5.t.+ . ",
"L.L.h.y.) ! ! ~ ^ ) q.q.w.d   L.",
"L., f e.m.m.m.m.m.m.m.M.h : L.L.",
"L.L.i i.N.N.N.N.N.V.K.K.e.3 L.L.",
"L.L., 4 w w w w w w t t 7 ; L.L.",
"L.L.L.L.L.L.L.L.L.L.L.L.L.L.L.L."
};
