/* XPM */
static char *OnItemCursor[] = {
/* columns rows colors chars-per-pixel */
"32 32 256 2",
"   c #000000",
".  c #CCCCFF",
"X  c #666699",
"o  c #919195",
"O  c #B0AFBE",
"+  c #A09DB9",
"@  c #928FB6",
"#  c #7C79A7",
"$  c #5E5E88",
"%  c #393F5C",
"&  c #293042",
"*  c #FFFFFF",
"=  c #D8D7DB",
"-  c #E4E2FB",
";  c #CBC7F8",
":  c #BEB8F4",
">  c #B3ADF0",
",  c #A9A2EC",
"<  c #9E96E8",
"1  c #8C85D9",
"2  c #545792",
"3  c #343B67",
"4  c #393B59",
"5  c #D7D7DA",
"6  c #EBEAFE",
"7  c #CECAFA",
"8  c #C3BEF6",
"9  c #B8B3F2",
"0  c #AEA8EE",
"q  c #A49CEA",
"w  c #9991E6",
"e  c #9188E3",
"r  c #978FE4",
"t  c #6F6CB8",
"y  c #5753A5",
"u  c #47456D",
"i  c #99999C",
"p  c #FAFAFE",
"a  c #D6D2FC",
"s  c #C9C4F8",
"d  c #BEB9F4",
"f  c #9591D4",
"g  c #7F7BC4",
"h  c #B7B3E3",
"j  c #AEA8EB",
"k  c #938AE4",
"l  c #9F97E8",
"z  c #A199E6",
"x  c #6960C2",
"c  c #5D56A5",
"v  c #BABABE",
"b  c #F2F1FE",
"n  c #C4BFF6",
"m  c #A5A0E5",
"M  c #625BB7",
"N  c #544F92",
"B  c #969699",
"V  c #EDECFB",
"C  c #9B93E6",
"Z  c #A49DEA",
"A  c #ABA4EA",
"S  c #655DB2",
"D  c #58519A",
"F  c #8B8B92",
"G  c #A2A0B7",
"H  c #9F9CBA",
"J  c #8480AB",
"K  c #565090",
"L  c #504D69",
"P  c #D7D7DE",
"I  c #C4BFF0",
"U  c #AAA3EC",
"Y  c #A7A1E4",
"T  c #57509A",
"R  c #4E4882",
"E  c #DBDAE4",
"W  c #B6B0EC",
"Q  c #9890E6",
"!  c #ACA5EA",
"~  c #706AA9",
"^  c #4B4681",
"/  c #E9E8F3",
"(  c #B0AAEB",
")  c #928AE4",
"_  c #9E95E8",
"`  c #A39CE5",
"'  c #6B66A1",
"]  c #454172",
"[  c #3C3951",
"{  c #DCDCE0",
"}  c #C7C3F1",
"|  c #9189E3",
" . c #978FE5",
".. c #968FD9",
"X. c #585387",
"o. c #3E3A60",
"O. c #F9F9FD",
"+. c #A49DE8",
"@. c #9289E4",
"#. c #9B93E5",
"$. c #4E4A76",
"%. c #373455",
"&. c #8982C6",
"*. c #8079C0",
"=. c #7E78B3",
"-. c #36344C",
";. c #312F3F",
":. c #53525A",
">. c #BDBDC6",
",. c #D6D2F5",
"<. c #A29BE6",
"1. c #696D9E",
"2. c #60629D",
"3. c #565379",
"4. c #FCFBFD",
"5. c #A69FE9",
"6. c #A8A0EB",
"7. c #ADA7EC",
"8. c #7C74C9",
"9. c #635DA3",
"0. c #F7F7FA",
"q. c #B1ABED",
"w. c #ADA6EE",
"e. c #A9A2E4",
"r. c #545099",
"t. c #403D74",
"y. c #78777E",
"u. c #C5C3D4",
"i. c #9893C4",
"p. c #4E4B80",
"a. c #292853",
"s. c #171720",
"d. c #141415",
"f. c #101011",
"g. c #0B0B0D",
"h. c #070708",
"j. c #010101",
"k. c #FFFFFF",
"l. c #FFFFFF",
"z. c #FFFFFF",
"x. c #FFFFFF",
"c. c #FFFFFF",
"v. c #FFFFFF",
"b. c #FFFFFF",
"n. c #FFFFFF",
"m. c #FFFFFF",
"M. c #FFFFFF",
"N. c #FFFFFF",
"B. c #FFFFFF",
"V. c #FFFFFF",
"C. c #FFFFFF",
"Z. c #FFFFFF",
"A. c #FFFFFF",
"S. c #FFFFFF",
"D. c #FFFFFF",
"F. c #FFFFFF",
"G. c #FFFFFF",
"H. c #FFFFFF",
"J. c #FFFFFF",
"K. c #FFFFFF",
"L. c #FFFFFF",
"P. c #FFFFFF",
"I. c #FFFFFF",
"U. c #FFFFFF",
"Y. c #FFFFFF",
"T. c #FFFFFF",
"R. c #FFFFFF",
"E. c #FFFFFF",
"W. c #FFFFFF",
"Q. c #FFFFFF",
"!. c #FFFFFF",
"~. c #FFFFFF",
"^. c #FFFFFF",
"/. c #FFFFFF",
"(. c #FFFFFF",
"). c #FFFFFF",
"_. c #FFFFFF",
"`. c #FFFFFF",
"'. c #FFFFFF",
"]. c #FFFFFF",
"[. c #FFFFFF",
"{. c #FFFFFF",
"}. c #FFFFFF",
"|. c #FFFFFF",
" X c #FFFFFF",
".X c #FFFFFF",
"XX c #FFFFFF",
"oX c #FFFFFF",
"OX c #FFFFFF",
"+X c #FFFFFF",
"@X c #FFFFFF",
"#X c #FFFFFF",
"$X c #FFFFFF",
"%X c #FFFFFF",
"&X c #FFFFFF",
"*X c #FFFFFF",
"=X c #FFFFFF",
"-X c #FFFFFF",
";X c #FFFFFF",
":X c #FFFFFF",
">X c #FFFFFF",
",X c #FFFFFF",
"<X c #FFFFFF",
"1X c #FFFFFF",
"2X c #FFFFFF",
"3X c #FFFFFF",
"4X c #FFFFFF",
"5X c #FFFFFF",
"6X c #FFFFFF",
"7X c #FFFFFF",
"8X c #FFFFFF",
"9X c #FFFFFF",
"0X c #FFFFFF",
"qX c #FFFFFF",
"wX c #FFFFFF",
"eX c #FFFFFF",
"rX c #FFFFFF",
"tX c #FFFFFF",
"yX c #FFFFFF",
"uX c #FFFFFF",
"iX c #FFFFFF",
"pX c #FFFFFF",
"aX c #FFFFFF",
"sX c #FFFFFF",
"dX c #FFFFFF",
"fX c #FFFFFF",
"gX c #FFFFFF",
"hX c #FFFFFF",
"jX c #FFFFFF",
"kX c #FFFFFF",
"lX c #FFFFFF",
"zX c #FFFFFF",
"xX c #FFFFFF",
"cX c #FFFFFF",
"vX c #FFFFFF",
"bX c #FFFFFF",
"nX c #FFFFFF",
"mX c #FFFFFF",
"MX c #FFFFFF",
"NX c #FFFFFF",
"BX c #FFFFFF",
"VX c #FFFFFF",
"CX c #FFFFFF",
"ZX c #FFFFFF",
"AX c #FFFFFF",
"SX c #FFFFFF",
"DX c #FFFFFF",
"FX c #FFFFFF",
"GX c #FFFFFF",
"HX c #FFFFFF",
"JX c #FFFFFF",
"KX c #FFFFFF",
"LX c #FFFFFF",
"PX c #FFFFFF",
"IX c #FFFFFF",
"UX c None",
/* pixels */
"UXUXUXUXUXUXUXUXUXUXUXUXUXUXUXUXUXUXUXUXUXUXUXUXUXUXUXUXUXUXUXUX",
"UXUXUXUXUXUXUXUXUXUXUXUXUXUXUXUXUXUXUXUXUXUXUXUXUXUXUXUXUXUXUXUX",
"UXUXUXUXUXUXUXUXUXUXUXUXUXUXUXUXUXUXUXUXUXUXUXUXUXUXUXUXUXUXUXUX",
"UXUXUXUXUX& UXUXUXUXUXUXUXUXUXUXUXUXUXUXUXUXUXUXUXUXUXUXUXUXUXUX",
"UXUXUXUXUX& & UXUXUXUXUXUXUXUXUXUXUXUXUXUXUXUXUXUXUXUXUXUXUXUXUX",
"UXUXUXUXUX& . & UXUXUXUXUXUXUXUXUXUXUXUXUXUXUXUXUXUXUXUXUXUXUXUX",
"UXUXUXUXUX& . X & UXUXUXUXUXUXUXUXUXUXUXUXUXUXUXUXUXUXUXUXUXUXUX",
"UXUXUXUXUX& . X X & UXUXUXUXUXUXUXUXUXUXUXUXUXUXUXUXUXUXUXUXUXUX",
"UXUXUXUXUX& . X X X & UXUXUXUXUXUXUXUXUXUXUXUXUXUXUXUXUXUXUXUXUX",
"UXUXUXUXUX& . X X X X & UXUXUXUXUXUXUXUXUXUXUXUXUXUXUXUXUXUXUXUX",
"UXUXUXUXUX& . X X X X X & UXUXUXUXUXUXUXUXUXUXUXUXUXUXUXUXUXUXUX",
"UXUXUXUXUX& . X X X & & & & UXUXUXUX& & & & & & % & UXUXUXUXUXUX",
"UXUXUXUXUX& . X & & * * * * * UXUX& - ; : > , < 1 2 3 4 UXUXUXUX",
"UXUXUXUXUX& . & * & & UXUXUXUXUX& 6 7 8 9 0 q w e r t y & UXUXUX",
"UXUXUXUXUX& & * UX& & UXUXUXUXi & a s d f g & j k l z x & UXUXUX",
"UXUXUXUXUX& * UXUXUX& & UXUXUXv & 7 n m M & B & C Z A S & UXUXUX",
"UXUXUXUXUXUX* UXUXUX& & UXUXUXUX& & & & & L P & < U Y T & UXUXUX",
"UXUXUXUXUXUXUXUXUXUXUX& & UXUXUXUXUXUXUXUXE & Q q ! ~ & UXUXUXUX",
"UXUXUXUXUXUXUXUXUXUXUX& & * UXUXUXUXUXUX/ & ) _ ` ' & & UXUXUXUX",
"UXUXUXUXUXUXUXUXUXUXUXUX* * UXUXUXUXUX{ & |  ...X.& UXUXUXUXUXUX",
"UXUXUXUXUXUXUXUXUXUXUXUXUXUXUXUXUXUXUXO.& @.#.$.& UXUXUXUXUXUXUX",
"UXUXUXUXUXUXUXUXUXUXUXUXUXUXUXUXUXUXUXE & & & & ;.UXUXUXUXUXUXUX",
"UXUXUXUXUXUXUXUXUXUXUXUXUXUXUXUXUXUXUXUX:.UXUXUXUXUXUXUXUXUXUXUX",
"UXUXUXUXUXUXUXUXUXUXUXUXUXUXUXUXUXUXUX>.& & & & 3.UXUXUXUXUXUXUX",
"UXUXUXUXUXUXUXUXUXUXUXUXUXUXUXUXUXUXUX& 5.6.7.8.& UXUXUXUXUXUXUX",
"UXUXUXUXUXUXUXUXUXUXUXUXUXUXUXUXUXUXUX& q.w.e.r.& UXUXUXUXUXUXUX",
"UXUXUXUXUXUXUXUXUXUXUXUXUXUXUXUXUXUXUXy.& & & & s.    UXUXUXUXUX",
"UXUXUXUXUXUXUXUXUXUXUXUXUXUXUXUXUXUXUXUXd.f.g.h.j.    UXUXUXUXUX",
"UXUXUXUXUXUXUXUXUXUXUXUXUXUXUXUXUXUXUXUXUXUXUXUXUXUXUXUXUXUXUXUX",
"UXUXUXUXUXUXUXUXUXUXUXUXUXUXUXUXUXUXUXUXUXUXUXUXUXUXUXUXUXUXUXUX",
"UXUXUXUXUXUXUXUXUXUXUXUXUXUXUXUXUXUXUXUXUXUXUXUXUXUXUXUXUXUXUXUX",
"UXUXUXUXUXUXUXUXUXUXUXUXUXUXUXUXUXUXUXUXUXUXUXUXUXUXUXUXUXUXUXUX"
};
