/* XPM */
static char *PrintSetup[] = {
/* columns rows colors chars-per-pixel */
"24 24 194 2",
"   c #505050",
".  c #505051",
"X  c #515151",
"o  c #646464",
"O  c #787877",
"+  c #7E7E7E",
"@  c #818181",
"#  c #828281",
"$  c #828282",
"%  c #838282",
"&  c #838382",
"*  c #838383",
"=  c #848383",
"-  c #848483",
";  c #848484",
":  c #858484",
">  c #858584",
",  c #858585",
"<  c #868685",
"1  c #868686",
"2  c #878786",
"3  c #888887",
"4  c #898989",
"5  c #939392",
"6  c #949493",
"7  c #959493",
"8  c #969594",
"9  c #979695",
"0  c #979796",
"q  c #989897",
"w  c #999998",
"e  c #9A9A99",
"r  c #9B9B9A",
"t  c #9C9C9B",
"y  c #9D9D9C",
"u  c #9E9E9D",
"i  c #9F9F9D",
"p  c #A0A09F",
"a  c #A5A5A5",
"s  c #A6A6A6",
"d  c #A7A7A7",
"f  c #A8A8A8",
"g  c #ABABAA",
"h  c #ACACAC",
"j  c #ADADAD",
"k  c #AEADAC",
"l  c #AEAEAE",
"z  c #AFAFAF",
"x  c #B0B0AF",
"c  c #B0B0B0",
"v  c #B1B1B1",
"b  c #B2B2B2",
"n  c #B3B3B3",
"m  c #B5B4B2",
"M  c #B4B4B3",
"N  c #B4B4B4",
"B  c #B5B5B5",
"V  c #B7B7B7",
"C  c #B9B9B8",
"Z  c #B9B9B9",
"A  c #BABABA",
"S  c #BBBBBB",
"D  c #BDBCBA",
"F  c #BEBDBB",
"G  c #BCBCBC",
"H  c #BFBFBC",
"J  c #BEBEBD",
"K  c #BEBEBE",
"L  c #BFBFBE",
"P  c #C0BEBC",
"I  c #C0BFBD",
"U  c #C1C1BF",
"Y  c #C2C1BF",
"T  c #C0C0C0",
"R  c #C3C2C0",
"E  c #C3C3C1",
"W  c #C3C2C2",
"Q  c #C3C3C2",
"!  c #C3C3C3",
"~  c #C4C4C1",
"^  c #C5C4C2",
"/  c #C5C4C3",
"(  c #C6C5C3",
")  c #C4C4C4",
"_  c #C7C6C4",
"`  c #C6C6C5",
"'  c #C7C6C5",
"]  c #C7C7C5",
"[  c #C7C7C6",
"{  c #C7C7C7",
"}  c #C8C7C5",
"|  c #C8C7C7",
" . c #C8C8C6",
".. c #C9C9C7",
"X. c #CAC9C7",
"o. c #C9C9C9",
"O. c #CBCAC8",
"+. c #CBCBC9",
"@. c #CACACA",
"#. c #CBCBCB",
"$. c #CCCBC9",
"%. c #CCCBCB",
"&. c #CCCCCA",
"*. c #CDCCCA",
"=. c #CDCDCB",
"-. c #CCCCCC",
";. c #CDCCCC",
":. c #CDCDCC",
">. c #CDCDCD",
",. c #CECDCC",
"<. c #CFCECC",
"1. c #CFCFCD",
"2. c #CECECE",
"3. c #CFCFCF",
"4. c #D0D0CE",
"5. c #D0D0CF",
"6. c #D1D0CF",
"7. c #D1D1CF",
"8. c #D0D0D0",
"9. c #D1D1D1",
"0. c #D2D2D0",
"q. c #D3D2D0",
"w. c #D3D3D1",
"e. c #D2D2D2",
"r. c #D3D3D3",
"t. c #D4D4D2",
"y. c #D5D4D3",
"u. c #D5D5D3",
"i. c #D6D5D3",
"p. c #D4D4D4",
"a. c #D5D5D5",
"s. c #D6D6D4",
"d. c #D7D7D5",
"f. c #D6D6D6",
"g. c #D7D7D7",
"h. c #D8D8D6",
"j. c #D8D8D7",
"k. c #D9D9D7",
"l. c #D8D8D8",
"z. c #D9D9D9",
"x. c #DADAD8",
"c. c #DBDBD9",
"v. c #DBDBDA",
"b. c #DADADB",
"n. c #DBDBDB",
"m. c #DDDDDB",
"M. c #DCDCDC",
"N. c #DEDEDC",
"B. c #DEDEDE",
"V. c #DFDFDF",
"C. c #E0DFDE",
"Z. c #E0E0DE",
"A. c #E1E1DF",
"S. c #E0E0E0",
"D. c #E1E1E0",
"F. c #E1E1E1",
"G. c #E2E2E2",
"H. c #E3E3E3",
"J. c #E6E6E6",
"K. c #E7E7E7",
"L. c #E8E8E7",
"P. c #E8E8E8",
"I. c #E9E8E8",
"U. c #E9E9E8",
"Y. c #EBEBEB",
"T. c #ECEBEB",
"R. c #EDECEB",
"E. c #ECECEC",
"W. c #EDECEC",
"Q. c #EDEDEC",
"!. c #EDEDED",
"~. c #EEEDEC",
"^. c #EEEDED",
"/. c #EEEEED",
"(. c #EFEEED",
"). c #EFEEEE",
"_. c #EFEFEE",
"`. c #EFEFEF",
"'. c #F0EFEE",
"]. c #F0EFEF",
"[. c #F0F0EF",
"{. c #F0F0F0",
"}. c #F1F0F0",
"|. c #F1F1F0",
" X c #F1F1F1",
".X c #F2F2F1",
"XX c #F2F2F2",
"oX c #F4F4F4",
"OX c #F5F5F4",
"+X c #F7F7F7",
"@X c #F8F8F8",
"#X c #FBFBFB",
"$X c #FDFDFD",
"%X c None",
/* pixels */
"%X%X%X%X%X%X%X%X%X%X%X%X%X%X%X%X%X%X%X%X%X%X%X%X",
"%X%X%X%X%X%X%X%X%X%X%X%X%X%X%X%X%X%X%X%X%X%X%X%X",
"%X%X%X%X%X! l.g.g.g.g.l.l.l.l.l.g.g.! %X%X%X%X%X",
"%X%X%X%X4 l.J.l.M.M.M.l.l.M.M.l.H.P.l.4 %X%X%X%X",
"%X%X%X%X4 g.H.g.9.g.9.K v @.g.9.M.J.g.4 %X%X%X%X",
"%X%X%X%X4 g.P.g.g.g.@.l f S 9.g.M.`.l.4 %X%X%X%X",
"%X%X%X%X4 l.`.H.H.g.v d f f @.H.P.{.g.4 %X%X%X%X",
"%X%X%X%X4 l.oXJ.M.B d d f f f -.`.oXl.4 %X%X%X%X",
"%X%X%X%X4 j.@XL.H.9.K d d d 9.`.#X$Xl.4 %X%X%X%X",
"%X%X%X%X%Xg.`.P.P.P.9.v v B M.{.'.{.g.%X%X%X%X%X",
"%X%X%X%X+ ;.9.-.-.-.9.9.9.-.9.9.9.g.-.+ %X%X%X%X",
"%X%X; ` l l v z v v v l v v l v v m l d ! @ %X%X",
"%X%X! $Xl.S G K S K G G S D G G G G B 9.{.G %X%X",
"%X%X9.oXW.P.{.XX{.{.{.'.`.`.`.`.`.T.T.L.P.9.%X%X",
"%X%X-.H.C.v.'.{.[.'.'.'.'.`.T.T.`.T.T.g./  .%X%X",
"%X%X/ l ^ ^ ;.-.-.-.%.%.%.-.-.&.<.-.&.f m ^ %X%X",
"%X%X .L p u u y r r e q q q 9 9 7 7 5 i D P %X%X",
"%X%X` A.c.k.k.s.s.7.7.&.&.&. ._ / / U U Y C %X%X",
"%X%X! M.d.g.s.7.7.<.&.%.X. ._ / Y Y U D I m %X%X",
"%X%XL A.m.c.k.k.s.s.s.q.7.<.<.%.$. ._ / ` l o %X",
"%X%X+ 3 2 ; 2 ; ; ; ; ; ; - - * # = # # # O %X%X",
"%X%X%XX     X X   X X X X X X X X X X X   %X%X%X",
"%X%X%X%X%X%X%X%X%X%X%X%X%X%X%X%X%X%X%X%X%X%X%X%X",
"%X%X%X%X%X%X%X%X%X%X%X%X%X%X%X%X%X%X%X%X%X%X%X%X"
};
