/* XPM */
static char *Print[] = {
/* columns rows colors chars-per-pixel */
"24 24 181 2",
"   c #505050",
".  c #505051",
"X  c #515151",
"o  c #646464",
"O  c #787777",
"+  c #7E7E7E",
"@  c #818181",
"#  c #828181",
"$  c #828281",
"%  c #828282",
"&  c #838382",
"*  c #838383",
"=  c #848483",
"-  c #848484",
";  c #858584",
":  c #858585",
">  c #868685",
",  c #868686",
"<  c #878786",
"1  c #888887",
"2  c #898989",
"3  c #929291",
"4  c #939392",
"5  c #949493",
"6  c #959594",
"7  c #969595",
"8  c #979695",
"9  c #989796",
"0  c #989897",
"q  c #999998",
"w  c #9A9A99",
"e  c #9B9B9A",
"r  c #9C9C9B",
"t  c #9D9D9C",
"y  c #9E9E9D",
"u  c #9F9E9D",
"i  c #A0A09F",
"p  c #A7A7A7",
"a  c #ABABA9",
"s  c #ACACAC",
"d  c #ADADAC",
"f  c #ADADAD",
"g  c #AFAFAF",
"h  c #B0AFAE",
"j  c #B0B0B0",
"k  c #B1B1B1",
"l  c #B3B3B3",
"z  c #B4B3B2",
"x  c #B4B3B3",
"c  c #B7B7B7",
"v  c #B8B8B8",
"b  c #B9B9B9",
"n  c #BCBCBA",
"m  c #BDBCBB",
"M  c #BCBCBC",
"N  c #BEBDBC",
"B  c #BEBDBD",
"V  c #BEBEBC",
"C  c #BFBFBD",
"Z  c #C0C0BE",
"A  c #C1C0BF",
"S  c #C0C0C0",
"D  c #C2C2C0",
"F  c #C3C2C1",
"G  c #C3C2C2",
"H  c #C3C3C2",
"J  c #C3C3C3",
"K  c #C4C3C2",
"L  c #C4C4C3",
"P  c #C5C4C3",
"I  c #C5C5C3",
"U  c #C6C5C4",
"Y  c #C6C6C4",
"T  c #C7C6C4",
"R  c #C6C6C5",
"E  c #C7C6C5",
"W  c #C7C7C7",
"Q  c #C8C7C5",
"!  c #C8C8C6",
"~  c #C9C8C7",
"^  c #C9C9C7",
"/  c #CACAC8",
"(  c #CBCAC8",
")  c #CBCBC9",
"_  c #CBCBCB",
"`  c #CCCBCA",
"'  c #CCCBCB",
"]  c #CDCCCA",
"[  c #CDCDCA",
"{  c #CDCCCB",
"}  c #CCCCCC",
"|  c #CDCCCC",
" . c #CDCDCC",
".. c #CDCDCD",
"X. c #CECECC",
"o. c #CFCFCC",
"O. c #CFCECD",
"+. c #CECECE",
"@. c #CFCFCF",
"#. c #D0D0CD",
"$. c #D0D0CE",
"%. c #D1D0CE",
"&. c #D0D0CF",
"*. c #D2D2CF",
"=. c #D0D0D0",
"-. c #D1D1D1",
";. c #D2D2D0",
":. c #D2D2D2",
">. c #D3D3D3",
",. c #D4D3D1",
"<. c #D4D4D2",
"1. c #D5D5D3",
"2. c #D6D6D3",
"3. c #D5D5D5",
"4. c #D7D6D4",
"5. c #D7D7D5",
"6. c #D6D6D6",
"7. c #D7D7D7",
"8. c #D8D8D5",
"9. c #D8D8D6",
"0. c #D9D9D6",
"q. c #DADAD7",
"w. c #D8D8D8",
"e. c #DBDBD8",
"r. c #DBDBD9",
"t. c #DADADA",
"y. c #DADBDB",
"u. c #DBDBDB",
"i. c #DDDCDB",
"p. c #DDDDDB",
"a. c #DEDEDB",
"s. c #DFDFDD",
"d. c #DEDEDE",
"f. c #DFDFDF",
"g. c #E0E0DD",
"h. c #E1E0DE",
"j. c #E1E1DE",
"k. c #E1E1E1",
"l. c #E2E2E2",
"z. c #E3E3E3",
"x. c #E5E5E5",
"c. c #E6E6E6",
"v. c #E7E7E7",
"b. c #E8E8E7",
"n. c #E8E8E8",
"m. c #E9E9E8",
"M. c #E9E9E9",
"N. c #EBEBEB",
"B. c #ECEBEA",
"V. c #EDEBEA",
"C. c #ECEBEB",
"Z. c #ECECEB",
"A. c #EDECEB",
"S. c #ECECEC",
"D. c #EDECEC",
"F. c #EDEDED",
"G. c #EEEDEC",
"H. c #EEEDED",
"J. c #EEEEED",
"K. c #EFEEED",
"L. c #EEEEEE",
"P. c #EFEEEE",
"I. c #EFEFEE",
"U. c #EFEFEF",
"Y. c #F0EFED",
"T. c #F0EFEE",
"R. c #F1EFEE",
"E. c #F0F0EF",
"W. c #F1F0EF",
"Q. c #F1F1F0",
"!. c #F1F1F1",
"~. c #F2F1F0",
"^. c #F2F1F1",
"/. c #F2F2F2",
"(. c #F4F4F4",
"). c #F5F5F4",
"_. c #F7F7F7",
"`. c #FBFBFB",
"'. c #FCFCFC",
"]. c #FDFDFD",
"[. c None",
/* pixels */
"[.[.[.[.[.[.[.[.[.[.[.[.[.[.[.[.[.[.[.[.[.[.[.[.",
"[.[.[.[.[.[.[.[.[.[.[.[.[.[.[.[.[.[.[.[.[.[.[.[.",
"[.[.[.[.[.L w.6.6.6.6.6.6.7.6.6.6.7.J [.[.[.[.[.",
"[.[.[.[.2 6.c.w.u.u.u.u.u.u.i.w.f.v.w.2 [.[.[.[.",
"[.[.[.[.2 6.z.:.>.>.:.:.>.>.:.:.u.c.6.2 [.[.[.[.",
"[.[.[.[.2 6.c.6.6.6.6.3.6.6.3.6.i.M.6.2 [.[.[.[.",
"[.[.[.[.2 6.U.z.z.z.z.z.z.z.z.f.M./.6.2 [.[.[.[.",
"[.[.[.[.2 w.(.c.c.c.x.x.z.x.x.c.U.(.w.2 [.[.[.[.",
"[.[.[.[.2 6._.v.v.c.c.c./.`.`.`.`.`.6.2 [.[.[.[.",
"[.[.[.[.[.6.U.c.n.v.M.M.S.U.U.U.U./.6.[.[.[.[.[.",
"[.[.[.[.+ ` :.| +.+.@.@.@.=.+.@.:.6.| + [.[.[.[.",
"[.[., L s g j g g g g g g j j g j l s p S $ [.[.",
"[.[.J ].w.M M M M M M M M M M M M M c =./.M [.[.",
"[.[.:.(.B.M././.W./.Y.U.U.U.U.U.U.C.B.n.v.*.[.[.",
"[.[.+.s.s.i.Y.Y.Y.Y.Y.Y.A.U.B.B.C.B.B.<.F ~ [.[.",
"[.[.F h F F | +.` | { { ` { { ` ` | +.a z F [.[.",
"[.[.! C i y y r r e 0 0 0 8 9 5 5 5 3 u N N [.[.",
"[.[.L j.e.0.6.1.*.*.*.{ { ( Q Q L A Z N Z c [.[.",
"[.[.L i.0.6.1.*.*.{ { ) ^ Q L L A Z N N C z [.[.",
"[.[.C j.p.e.0.8.1.1.1.:.#.o.{ { ` ^ Q L L g o [.",
"[.[.+ 1 , , , > , , > $ & > $ > > $ $ $ $ O [.[.",
"[.[.[..           .     . . . . . . . .   [.[.[.",
"[.[.[.[.[.[.[.[.[.[.[.[.[.[.[.[.[.[.[.[.[.[.[.[.",
"[.[.[.[.[.[.[.[.[.[.[.[.[.[.[.[.[.[.[.[.[.[.[.[."
};
