/* XPM */
static char *Reload[] = {
/* columns rows colors chars-per-pixel */
"24 24 207 2",
"   c #22416A",
".  c #315787",
"X  c #2F5C97",
"o  c #325C93",
"O  c #305C95",
"+  c #35629B",
"@  c #34639F",
"#  c #39649A",
"$  c #3F699F",
"%  c #3163A3",
"&  c #3364A4",
"*  c #3464A4",
"=  c #3465A4",
"-  c #3465A5",
";  c #3566A5",
":  c #3465A6",
">  c #3667A6",
",  c #3767A6",
"<  c #3768A6",
"1  c #3768A7",
"2  c #3868A5",
"3  c #3868A7",
"4  c #3969A8",
"5  c #386AA9",
"6  c #3C6AA9",
"7  c #3C6BA9",
"8  c #3C6CA9",
"9  c #3F6DAA",
"0  c #3E6EAA",
"q  c #3F72B0",
"w  c #426CA2",
"e  c #436DA2",
"r  c #406FAB",
"t  c #416FAB",
"y  c #4170AA",
"u  c #4370AC",
"i  c #4572AD",
"p  c #4573AE",
"a  c #4473AF",
"s  c #4673AF",
"d  c #4975AF",
"f  c #4172B0",
"g  c #4173B0",
"h  c #4775B1",
"j  c #4976B2",
"k  c #4C77B0",
"l  c #4478B5",
"z  c #4779B5",
"x  c #477AB7",
"c  c #4A78B3",
"v  c #4E7AB2",
"b  c #4E7BB2",
"n  c #4A7AB4",
"m  c #4C7AB4",
"M  c #4F7CB5",
"N  c #4078BC",
"B  c #497BB8",
"V  c #4B7CB8",
"C  c #4A7CB9",
"Z  c #4E7EB8",
"A  c #507CB2",
"S  c #537DB3",
"D  c #537EB5",
"F  c #507EB7",
"G  c #527FB6",
"H  c #4F82BD",
"J  c #5580B5",
"K  c #5782B6",
"L  c #5982B7",
"P  c #5B84B7",
"I  c #5180B9",
"U  c #5084BF",
"Y  c #5B84B8",
"T  c #5D85B9",
"R  c #5E86B9",
"E  c #5F86B9",
"W  c #5D87BA",
"Q  c #5A86BD",
"!  c #5A87BD",
"~  c #6087BA",
"^  c #6188BA",
"/  c #6088BB",
"(  c #6289BC",
")  c #628BBC",
"_  c #648DBE",
"`  c #6A90BF",
"'  c #5286C2",
"]  c #568BC5",
"[  c #588CC5",
"{  c #5D90C7",
"}  c #5C90C8",
"|  c #5E91C8",
" . c #5F92C8",
".. c #608AC0",
"X. c #648DC1",
"o. c #6B90C0",
"O. c #6B92C1",
"+. c #6D92C1",
"@. c #6E93C1",
"#. c #6D94C3",
"$. c #6F94C2",
"%. c #6894C7",
"&. c #6A95C7",
"*. c #6E97C7",
"=. c #6294CA",
"-. c #6495CA",
";. c #6495CB",
":. c #6696CB",
">. c #6697CB",
",. c #6997CA",
"<. c #6798CC",
"1. c #6A99CC",
"2. c #6A99CD",
"3. c #7197C4",
"4. c #7197C5",
"5. c #7297C4",
"6. c #7699C5",
"7. c #779AC5",
"8. c #7599C6",
"9. c #789BC7",
"0. c #7A9DC7",
"q. c #709DCE",
"w. c #759DCC",
"e. c #749FCF",
"r. c #799CC8",
"t. c #74A0CF",
"y. c #7CA0CB",
"u. c #7EA0CA",
"i. c #78A1CE",
"p. c #73A0D0",
"a. c #75A1D0",
"s. c #77A2D0",
"d. c #78A3D1",
"f. c #7BA5D2",
"g. c #7CA6D3",
"h. c #7FA8D3",
"j. c #83A4CD",
"k. c #83A6CE",
"l. c #84A5CC",
"z. c #85A6CD",
"x. c #85A7CF",
"c. c #89A8CF",
"v. c #87A8D0",
"b. c #84AAD3",
"n. c #84ABD5",
"m. c #85ACD5",
"M. c #87ADD6",
"N. c #89ACD3",
"B. c #8CACD1",
"V. c #8EADD2",
"C. c #89AFDA",
"Z. c #90AFD4",
"A. c #8FB1D6",
"S. c #8DB1D8",
"D. c #8FB3D9",
"F. c #90B1D6",
"G. c #92B3D7",
"H. c #96B3D5",
"J. c #97B3D5",
"K. c #95B3D6",
"L. c #95B4D6",
"P. c #97B4D6",
"I. c #98B5D6",
"U. c #9CB7D7",
"Y. c #93B4D8",
"T. c #93B5DA",
"R. c #95B5D8",
"E. c #94B6DA",
"W. c #94B6DB",
"Q. c #95B7DB",
"!. c #97B7DA",
"~. c #97B8DC",
"^. c #9EB8D8",
"/. c #99BADC",
"(. c #9BBBDD",
"). c #9FBEDF",
"_. c #A1BDDB",
"`. c #A3BEDD",
"'. c #A0BEDE",
"]. c #A1BFDF",
"[. c #A6C0DD",
"{. c #A4C1DF",
"}. c #A3C1E0",
"|. c #ABC5E1",
" X c #ABC6E2",
".X c #ABC7E3",
"XX c #ACC4E0",
"oX c #ADC6E2",
"OX c #ADC7E3",
"+X c #ADC8E3",
"@X c #AEC8E4",
"#X c #B0C9E3",
"$X c #B0C9E4",
"%X c #B1CAE4",
"&X c #B3CAE4",
"*X c #B3CBE4",
"=X c #B4CBE5",
"-X c #B4CCE5",
";X c #B5CCE5",
":X c #B4CCE6",
">X c #B6CEE6",
",X c #B7CEE6",
"<X c #B8D0E7",
"1X c #BAD0E7",
"2X c #BBD1E8",
"3X c #BED4E9",
"4X c None",
/* pixels */
"4X4X4X4X4X4X4X4X4X4X4X4X4X4X4X4X4X4X4X4X4X4X4X4X",
"4X4X4X4X4X4X4XT 8.9.r.8.3.L 4X4X4X4X4X4X4X4X4X4X",
"4X4X4X4X4Xk l.[.;X2X;X;XXX_.V.+.p 4X4X4X6 > 4X4X",
"4X4X4X4Xv I.3X2X;X*X<X;X*X@X+X|.H.( 4Xh 4.0 4X4X",
"4X4X4X4Xl.XXl.4.+.+.8.c.`.*X|.)./.W.3.r.!.r 4X4X",
"4X4X4XP l.L 6 > % 4X4X4XK #.A.W.M.g.A.S.A.r 4X4X",
"4X4X4Xd D j h > 4X4X4X4X4X4Xp +.N.M.d.a.A.r 4X4X",
"4X4X4X3 m ..c 4X4X4X4X4X4X4X4X3 $.!.d.a.H.p 4X4X",
"4X4X4X6 ! 4XM 4X4X4X4X4X4X4X4X/ F.M.f.g.!.p 4X4X",
"4X4X4X3 4X4X4X4X4X4X4X4X4X4Xr r.v.k.k.x.j.0 4X4X",
"4X4X4X4X4X4X4X4X& > % 4X4X4X& > 4X4X4X> * 4X4X4X",
"4X4X4XA ^.U.P.P.H.` > 4X4X4X4X4X4X4X4X4X4X* 4X4X",
"4X4X4X/ ;X).)..XP.A 4X4X4X4X4X4X4X4X4X4X4X& 4X4X",
"4X4X4X/ *X~.).@XT 4X4X4X4X4X4X4X4X4X4X4X0 > 4X4X",
"4X4X4X/ @X(.(.[.P._ 0 4X4X4X4X4X4XS.*X+.q < 4X4X",
"4X4X4XT *X@X}.Q.D.n.*.D p 4X4X4XN w.X.l l 6 4X4X",
"4X4X4XT *Xu.V.W.a.1.2.t.&.! I V V V H ' q 4X4X4X",
"4X4X4XK 0.+ w / i.t.2.1.<.<.;.| } } [ l @ 4X4X4X",
"4X4X4X3 # 4X4X4X$ W &.,.>.;.;.| [ U g O 4X4X4X4X",
"4X4X4XO 4X4X4X4X4X  . w v M Z n 0 o 4X4X4X4X4X4X",
"4X4X4X4X4X4X4X4X4X4X4X4X4X4X4X4X4X4X4X4X4X4X4X4X",
"4X4X4X4X4X4X4X4X4X4X4X4X4X4X4X4X4X4X4X4X4X4X4X4X",
"4X4X4X4X4X4X4X4X4X4X4X4X4X4X4X4X4X4X4X4X4X4X4X4X",
"4X4X4X4X4X4X4X4X4X4X4X4X4X4X4X4X4X4X4X4X4X4X4X4X"
};
