/* XPM */
static char *SearchMedHigh[] = {
/* columns rows colors chars-per-pixel */
"11 12 64 1",
"  c #B82121",
". c #BA2424",
"X c #C91F1F",
"o c #CC1E1E",
"O c #D42B2B",
"+ c #D42E2E",
"@ c #D92E2E",
"# c #CF3535",
"$ c #DA3030",
"% c #DD3333",
"& c #DD3434",
"* c #DD3535",
"= c #DE3737",
"- c #D13939",
"; c #D53F3F",
": c #ED2323",
"> c #ED2525",
", c #ED2626",
"< c #ED2727",
"1 c #ED2828",
"2 c #EE2E2E",
"3 c #EE3232",
"4 c #E53E3E",
"5 c #E53F3F",
"6 c #EF3939",
"7 c #EE3C3C",
"8 c #D54242",
"9 c #D44747",
"0 c #D54949",
"q c #DA5151",
"w c #EA4444",
"e c #EB4545",
"r c #EB4646",
"t c #EB4747",
"y c #EC4545",
"u c #ED4545",
"i c #E34949",
"p c #EB4F4F",
"a c #E55B5B",
"s c #F37373",
"d c #F47777",
"f c #F47878",
"g c #F09393",
"h c #F09797",
"j c #F4A3A3",
"k c #F4A8A8",
"l c #FAD1D1",
"z c #FAD3D3",
"x c #FEEEEE",
"c c #FFF9F9",
"v c #FFFAFA",
"b c #FFFFFF",
"n c None",
"m c #000000",
"M c #000000",
"N c #000000",
"B c #000000",
"V c #000000",
"C c #000000",
"Z c #000000",
"A c #000000",
"S c #000000",
"D c #000000",
"F c #000000",
/* pixels */
"nnnnnnnnnnn",
"nnn.0q9 nnn",
"nn8hlxlg;nn",
"n-kvbbbvj#n",
"naddfdddsin",
"Xp<:::::,wn",
"ow<<<<<<,wn",
"n43<<<<<3wn",
"n@y2<<<2y$n",
"nn&w767w&nn",
"nnnO&=&+nnn",
"nnnnnnnnnnn"
};
