/* XPM */
static char *SearchNav[] = {
/* columns rows colors chars-per-pixel */
"32 32 128 2",
"   c #464646",
".  c #4B4B4B",
"X  c #565656",
"o  c #5A5A5A",
"O  c #656565",
"+  c #6D6D6D",
"@  c #757575",
"#  c #7B7B7B",
"$  c #3366A5",
"%  c #3668A7",
"&  c #3A6AA7",
"*  c #3C6CA8",
"=  c #3E70AC",
"-  c #406FA9",
";  c #4172AD",
":  c #4975AC",
">  c #557CAF",
",  c #4575B0",
"<  c #4877B3",
"1  c #4C7CB6",
"2  c #5F85B3",
"3  c #5988BE",
"4  c #6387B2",
"5  c #6388B3",
"6  c #6B8CB4",
"7  c #6F90B9",
"8  c #7392B7",
"9  c #7593BA",
"0  c #7996BB",
"q  c #7C9ABD",
"w  c #5E8BC1",
"e  c #618FC3",
"r  c #6C96CA",
"t  c #6C9ACB",
"y  c #719ECE",
"u  c #709FD1",
"i  c #7CA6D1",
"p  c #868686",
"a  c #8A8A8A",
"s  c #939393",
"d  c #9B9B9B",
"f  c #A3A3A3",
"g  c #ABABAB",
"h  c #B3B3B3",
"j  c #BABABA",
"k  c #809EC2",
"l  c #85A1C5",
"z  c #83ABD4",
"x  c #8BB1D7",
"c  c #91B5DA",
"v  c #B8C2CD",
"b  c #BDC6D1",
"n  c #A3C2E0",
"m  c #ACC6E2",
"M  c #AFC9E3",
"N  c #BED3E9",
"B  c #C4C4C4",
"V  c #CCCCCC",
"C  c #C3CAD2",
"Z  c #C9CFD7",
"A  c #D2D2D2",
"S  c #D7D8DA",
"D  c #DCDCDC",
"F  c #C2D6EA",
"G  c #C6D8EC",
"H  c #CCDCEE",
"J  c #D5DCE5",
"K  c #D2DFEE",
"L  c #D1E0EF",
"P  c #D9E2ED",
"I  c #D5E2F1",
"U  c #DAE6F2",
"Y  c #DEE8F3",
"T  c #E3E3E3",
"R  c #E5E6E8",
"E  c #ECECEC",
"W  c #E3ECF5",
"Q  c #E8F0F7",
"!  c #EDF3F9",
"~  c #F3F3F3",
"^  c #FBFBFB",
"/  c None",
"(  c #000000",
")  c #000000",
"_  c #000000",
"`  c #000000",
"'  c #000000",
"]  c #000000",
"[  c #000000",
"{  c #000000",
"}  c #000000",
"|  c #000000",
" . c #000000",
".. c #000000",
"X. c #000000",
"o. c #000000",
"O. c #000000",
"+. c #000000",
"@. c #000000",
"#. c #000000",
"$. c #000000",
"%. c #000000",
"&. c #000000",
"*. c #000000",
"=. c #000000",
"-. c #000000",
";. c #000000",
":. c #000000",
">. c #000000",
",. c #000000",
"<. c #000000",
"1. c #000000",
"2. c #000000",
"3. c #000000",
"4. c #000000",
"5. c #000000",
"6. c #000000",
"7. c #000000",
"8. c #000000",
"9. c #000000",
"0. c #000000",
"q. c #000000",
"w. c #000000",
"e. c #000000",
"r. c #000000",
"t. c #000000",
"y. c #000000",
"u. c #000000",
/* pixels */
"/ / / / / / / / / / / / / / / / / / / / / / / / / / / / / / / / ",
"/ / / / / / / / / / a a a a a a / / / / / / / / / / / / / / / / ",
"/ / / / / / / / d A E ^ ^ ^ ^ T j a / / / / / / / / / / / / / / ",
"/ / / / / / a S ^ ~ T T T D R E ^ E h a / / / / / / / / / / / / ",
"/ / / / / s ~ ~ D v 4 & $ $ & 5 b ~ ^ B a / / / / / / / / / / / ",
"/ / / / a E E S 2 $ 1 e t t e 1 $ 5 R ^ B a / / / / / / / / / / ",
"/ / / / A ~ D : = y m H U H N c t = : E ! g / / / / / / / / / / ",
"/ / / s ^ D 6 = z L W Q W Y I K m y ; 8 ^ S a / / / / / / / / / ",
"/ / / B E C % y K W W ! W W U I H x y & J E g / / / / / / / / / ",
"/ / a D T 6 1 n U Y Q Q W W Y I H i y 1 9 ~ B a / / / / / / / / ",
"/ / a R D * e F I Y W W W Y U I N y y e - ~ A a / / / / / / / / ",
"/ / a R S $ t G L I U Y W Y U I c y y r $ E D a / / / / / / / / ",
"/ / a T D $ t F H I I U U U I M / / y t $ R D a / / / / / / / / ",
"/ / a T T * e m F H K I U I / / / / y w ; T A p / / / / / / / / ",
"/ / a V R 8 1 z M N H G / / / / / / / 1 q R j p / / / / / / / / ",
"/ / / g ~ Z & y y / / / / / / / / / / & J T d / / / / / / / / / ",
"/ / / a T ~ 0 , u / / / / / / / / / ; k E V # / / / / / / / / / ",
"/ / / / f ~ ~ > ; r / / / / / / / = 5 ~ D a + / / / / / / / / / ",
"/ / / / p j ~ ~ 9 $ < 3 / / 3 : $ k ~ T R B s X / / / / / / / / ",
"/ / / / / a h E ^ J k : % $ : l P E D P j s f s   / / / / / / / ",
"/ / / / / / a f A R ~ ^ ^ ^ ~ R D V a A g g s f f . / / / / / / ",
"/ / / / / / / / a f j V S A V j d # + s j g g s f f X / / / / / ",
"/ / / / / / / / / / a a a a a a / / / X # j g g s d f O   / / / ",
"/ / / / / / / / / / / / / / / / / / / /   + j h g d d g @   / / ",
"/ / / / / / / / / / / / / / / / / / / / / / o h h g f h T #   / ",
"/ / / / / / / / / / / / / E E R / / / / / / / . g h h D T B   / ",
"/ / / / / / / / / / / / E ~ ^ ~ E S / / / / / /   f A D R j   / ",
"/ / / / / / / / / / / / / / / / / / / / / / / / /   a A B o / / ",
"/ / / / / / / / / / / / / / / / / / / / / / / / / / /     / / / ",
"/ / / / / / / / / / / / / / / / / / / / / / / / / / / / / / / / ",
"/ / / / / / / / / / / / / / / / / / / / / / / / / / / / / / / / ",
"/ / / / / / / / / / / / / / / / / / / / / / / / / / / / / / / / "
};
