/* XPM */
static char *SearchHigh[] = {
/* columns rows colors chars-per-pixel */
"11 12 64 1",
"  c #B92727",
". c #BB2929",
"X c #C91F1F",
"o c #CC1E1E",
"O c #D42B2B",
"+ c #D42E2E",
"@ c #D92E2E",
"# c #CF3737",
"$ c #DA3030",
"% c #DD3333",
"& c #DD3434",
"* c #DD3535",
"= c #DE3737",
"- c #D13A3A",
"; c #ED2525",
": c #ED2626",
"> c #ED2727",
", c #ED2828",
"< c #ED2929",
"1 c #EE2E2E",
"2 c #EE3232",
"3 c #EE3434",
"4 c #EE3737",
"5 c #E53E3E",
"6 c #E53F3F",
"7 c #EF3939",
"8 c #EE3C3C",
"9 c #EF3D3D",
"0 c #D54141",
"q c #D44545",
"w c #D64545",
"e c #D54747",
"r c #D94B4B",
"t c #EA4444",
"y c #EB4545",
"u c #EB4646",
"i c #EB4747",
"p c #EC4545",
"a c #ED4545",
"s c #E34848",
"d c #EB4F4F",
"f c #F04646",
"g c #E55959",
"h c #F05454",
"j c #F05757",
"k c #EF6161",
"l c #EF6666",
"z c #ED6969",
"x c #ED6D6D",
"c c None",
"v c #000000",
"b c #000000",
"n c #000000",
"m c #000000",
"M c #000000",
"N c #000000",
"B c #000000",
"V c #000000",
"C c #000000",
"Z c #000000",
"A c #000000",
"S c #000000",
"D c #000000",
"F c #000000",
/* pixels */
"ccccccccccc",
"ccc.wrq.ccc",
"ccwxjahz0cc",
"c-l3:::3k#c",
"cg9::,::4sc",
"Xd,::::,>tc",
"oy,,,,,:>yc",
"c62:::,:2tc",
"c@a1:::1a$c",
"cc&y979y&cc",
"cccO&=&+ccc",
"ccccccccccc"
};
