/* XPM */
static char *SearchMed[] = {
/* columns rows colors chars-per-pixel */
"11 12 64 1",
"  c #B82121",
". c #BA2424",
"X c #C81818",
"o c #CC1D1D",
"O c #D42B2B",
"+ c #D42E2E",
"@ c #D92E2E",
"# c #CF3434",
"$ c #D13737",
"% c #DA3030",
"& c #DD3333",
"* c #DD3434",
"= c #DD3535",
"- c #DE3737",
"; c #D53F3F",
": c #ED2525",
"> c #ED2626",
", c #EE2E2E",
"< c #EE3030",
"1 c #E43E3E",
"2 c #E53E3E",
"3 c #EF3939",
"4 c #EE3C3C",
"5 c #EF3E3E",
"6 c #EF3F3F",
"7 c #D54242",
"8 c #D44747",
"9 c #D54949",
"0 c #DA5151",
"q c #EB4646",
"w c #EB4747",
"e c #EC4545",
"r c #ED4545",
"t c #EB4D4D",
"y c #E55959",
"u c #E76B6B",
"i c #F08585",
"p c #F19090",
"a c #F09393",
"s c #F09797",
"d c #F4A1A1",
"f c #F4A6A6",
"g c #FAD1D1",
"h c #FAD3D3",
"j c #FCE4E4",
"k c #FDE5E5",
"l c #FDE6E6",
"z c #FDE8E8",
"x c #FDE9E9",
"c c #FEEEEE",
"v c #FFF6F6",
"b c #FFF7F7",
"n c #FFFFFF",
"m c None",
"M c #000000",
"N c #000000",
"B c #000000",
"V c #000000",
"C c #000000",
"Z c #000000",
"A c #000000",
"S c #000000",
"D c #000000",
"F c #000000",
/* pixels */
"mmmmmmmmmmm",
"mmm.908 mmm",
"mm7sgcga7mm",
"m$fbnnnbs$m",
"muznnnnnjym",
"Xallzzzzjim",
"ote45555etm",
"m1<:::::<1m",
"m@r,:::,r%m",
"mm&r535w=mm",
"mmmO=-=+mmm",
"mmmmmmmmmmm"
};
