/* XPM */
static char *SearchLow[] = {
/* columns rows colors chars-per-pixel */
"11 12 64 1",
"  c #B82121",
". c #BA2424",
"X c #CB1515",
"o c #C81717",
"O c #D42525",
"+ c #D42828",
"@ c #D92B2B",
"# c #DA2E2E",
"$ c #CF3434",
"% c #D13737",
"& c #DD3030",
"* c #DD3232",
"= c #DD3737",
"- c #D53F3F",
"; c #DF3E3E",
": c #D54242",
"> c #D44747",
", c #D54949",
"< c #DA5151",
"1 c #E64F4F",
"2 c #E65050",
"3 c #E55959",
"4 c #E76A6A",
"5 c #EE7171",
"6 c #EF7171",
"7 c #F28585",
"8 c #F08D8D",
"9 c #F18D8D",
"0 c #F18E8E",
"q c #F09393",
"w c #F09797",
"e c #F29898",
"r c #F4A1A1",
"t c #F4A6A6",
"y c #F9B9B9",
"u c #F9BABA",
"i c #FAD1D1",
"p c #FAD3D3",
"a c #FCDCDC",
"s c #FDE0E0",
"d c #FCE2E2",
"f c #FDE7E7",
"g c #FEEEEE",
"h c #FEF0F0",
"j c #FFF6F6",
"k c #FFF7F7",
"l c #FFFCFC",
"z c #FFFDFD",
"x c #FFFFFF",
"c c None",
"v c #000000",
"b c #000000",
"n c #000000",
"m c #000000",
"M c #000000",
"N c #000000",
"B c #000000",
"V c #000000",
"C c #000000",
"Z c #000000",
"A c #000000",
"S c #000000",
"D c #000000",
"F c #000000",
/* pixels */
"ccccccccccc",
"ccc.,<> ccc",
"cc:wigiq:cc",
"c%tkxxxkr$c",
"c4fxxxxxs3c",
"owxxxxxxl9c",
"X9xxxxxxx9c",
"c1axxxxxa2c",
"c@7hxxxh7#c",
"cc&6usu6&cc",
"cccO=;=+ccc",
"ccccccccccc"
};
