/* XPM */
static char *SearchMedLow[] = {
/* columns rows colors chars-per-pixel */
"11 12 64 1",
"  c #B82121",
". c #BA2424",
"X c #CB1515",
"o c #C81717",
"O c #D42B2B",
"+ c #D42E2E",
"@ c #D92C2C",
"# c #DA2F2F",
"$ c #CF3434",
"% c #D13737",
"& c #DD3333",
"* c #DD3434",
"= c #DD3535",
"- c #DE3737",
"; c #D53F3F",
": c #ED2323",
"> c #ED2424",
", c #EE2B2B",
"< c #EF3939",
"1 c #EE3C3C",
"2 c #D54242",
"3 c #D44747",
"4 c #D54949",
"5 c #DA5151",
"6 c #EC4343",
"7 c #EB4646",
"8 c #EB4747",
"9 c #E64E4E",
"0 c #E55959",
"q c #E76A6A",
"w c #F08D8D",
"e c #F18D8D",
"r c #F18E8E",
"t c #F09393",
"y c #F09797",
"u c #F29898",
"i c #F4A1A1",
"p c #F7A1A1",
"a c #F4A6A6",
"s c #F8AEAE",
"d c #F8AFAF",
"f c #FAD1D1",
"g c #FAD3D3",
"h c #FCE2E2",
"j c #FDE7E7",
"k c #FEEEEE",
"l c #FFF6F6",
"z c #FFF7F7",
"x c #FFFCFC",
"c c #FFFDFD",
"v c #FFFFFF",
"b c None",
"n c #000000",
"m c #000000",
"M c #000000",
"N c #000000",
"B c #000000",
"V c #000000",
"C c #000000",
"Z c #000000",
"A c #000000",
"S c #000000",
"D c #000000",
"F c #000000",
/* pixels */
"bbbbbbbbbbb",
"bbb.453 bbb",
"bb2yfkft;bb",
"b%azvvvzp$b",
"bqjvvvvvh0b",
"oyvvvvvvvrb",
"Xrvvvvvvvrb",
"b9psssssp9b",
"b@6,>>>,6&b",
"bb&71<18=bb",
"bbbO===+bbb",
"bbbbbbbbbbb"
};
