/* XPM */
static char * TOCNav_xpm[] = {
"32 32 350 2",
"  	c None",
". 	c #39497A",
"+ 	c #374979",
"@ 	c #364878",
"# 	c #394A7A",
"$ 	c #394A79",
"% 	c #7B8AAB",
"& 	c #C3D2E2",
"* 	c #CBDAE9",
"= 	c #BACDE1",
"- 	c #B1C6DC",
"; 	c #ABC1D9",
"> 	c #ADC3DA",
", 	c #AFC4DB",
"' 	c #B3C7DD",
") 	c #B5C9DE",
"! 	c #B8CADF",
"~ 	c #BACCE0",
"{ 	c #BCCDE1",
"] 	c #BECFE1",
"^ 	c #C0D1E2",
"/ 	c #C2D2E3",
"( 	c #C4D4E4",
"_ 	c #C6D5E5",
": 	c #C8D7E6",
"< 	c #C1CEDF",
"[ 	c #3F517E",
"} 	c #384979",
"| 	c #C2CFE0",
"1 	c #C2D2E1",
"2 	c #D2DFEC",
"3 	c #ACC3DB",
"4 	c #9FB9D4",
"5 	c #95B1CF",
"6 	c #BBCDE0",
"7 	c #516088",
"8 	c #C5A201",
"9 	c #364978",
"0 	c #D0DDEA",
"a 	c #BFCEDE",
"b 	c #D1DEEB",
"c 	c #B9CCDF",
"d 	c #627294",
"e 	c #CDB632",
"f 	c #374878",
"g 	c #D5E2EE",
"h 	c #BCCCDB",
"i 	c #CFDDEA",
"j 	c #97ACCC",
"k 	c #A09ABD",
"l 	c #A58EB4",
"m 	c #A989B0",
"n 	c #A78BB1",
"o 	c #A492B7",
"p 	c #9CA2C4",
"q 	c #95B0CF",
"r 	c #B4C8DD",
"s 	c #7986A1",
"t 	c #C5B851",
"u 	c #C6A300",
"v 	c #3D4E7D",
"w 	c #D7E4F0",
"x 	c #BBCAD9",
"y 	c #CEDCEA",
"z 	c #95B1CE",
"A 	c #A099BC",
"B 	c #AC81A9",
"C 	c #A78CB2",
"D 	c #9DA0C2",
"E 	c #9E9EC1",
"F 	c #A395B9",
"G 	c #AB83AC",
"H 	c #98ACCB",
"I 	c #B0C5DB",
"J 	c #8996AE",
"K 	c #B9B161",
"L 	c #C7A400",
"M 	c #475884",
"N 	c #B9C8D7",
"O 	c #CDDBE9",
"P 	c #A58FB5",
"Q 	c #A988AF",
"R 	c #9AA7C8",
"S 	c #97AECD",
"T 	c #A888AF",
"U 	c #96AECD",
"V 	c #AAC0D8",
"W 	c #97A6BB",
"X 	c #AAA670",
"Y 	c #C6A200",
"Z 	c #51618C",
"` 	c #D8E4F0",
" .	c #B8C7D5",
"..	c #CCDAE9",
"+.	c #A297BB",
"@.	c #96AFCD",
"#.	c #99A9C9",
"$.	c #9BA5C6",
"%.	c #95AFCE",
"&.	c #95B0CE",
"*.	c #A889AF",
"=.	c #A6BDD7",
"-.	c #A3B1C8",
";.	c #55643E",
">.	c #737F0A",
",.	c #75810B",
"'.	c #5A6B92",
").	c #B5C4D2",
"!.	c #A0B2CF",
"~.	c #AC82AA",
"{.	c #99AAC9",
"].	c #97ADCC",
"^.	c #A78CB1",
"/.	c #AC80A8",
"(.	c #AB84AB",
"_.	c #A590B5",
":.	c #9CA1C3",
"<.	c #AA84AC",
"[.	c #A0B9D4",
"}.	c #AFBDD2",
"|.	c #738183",
"1.	c #C7D288",
"2.	c #727E0A",
"3.	c #627399",
"4.	c #D8E5F0",
"5.	c #B4C3D1",
"6.	c #C9D8E8",
"7.	c #A69DBF",
"8.	c #A591B5",
"9.	c #A88AB1",
"0.	c #9DA1C2",
"a.	c #AD7FA8",
"b.	c #A393B8",
"c.	c #97ACCB",
"d.	c #9BB6D2",
"e.	c #BBC8DA",
"f.	c #546663",
"g.	c #C9D389",
"h.	c #7B8717",
"i.	c #6F80A3",
"j.	c #B5C2D0",
"k.	c #C8D8E7",
"l.	c #A990B5",
"m.	c #9F9DBF",
"n.	c #AD80A9",
"o.	c #9BA4C5",
"p.	c #A987AE",
"q.	c #A296BA",
"r.	c #97ADCD",
"s.	c #96AECC",
"t.	c #96B2D0",
"u.	c #C6D2E2",
"v.	c #4A5C6C",
"w.	c #C3CE7B",
"x.	c #879329",
"y.	c #7888A9",
"z.	c #B3C1CE",
"A.	c #C7D7E7",
"B.	c #AA8AAF",
"C.	c #9CA2C3",
"D.	c #98A9C9",
"E.	c #98ACCA",
"F.	c #9CA3C4",
"G.	c #AA86AD",
"H.	c #C6D4E3",
"I.	c #495A78",
"J.	c #BDCA6F",
"K.	c #95A13D",
"L.	c #8290B1",
"M.	c #B3C0CD",
"N.	c #C5D6E6",
"O.	c #AA8BB0",
"P.	c #9DA0C1",
"Q.	c #AD7FA9",
"R.	c #9F9EC0",
"S.	c #96AFCE",
"T.	c #C5D4E4",
"U.	c #4C5983",
"V.	c #CC0000",
"W.	c #CC0100",
"X.	c #C60D03",
"Y.	c #8999B6",
"Z.	c #B5C1CE",
"`.	c #C4D5E6",
" +	c #A797BA",
".+	c #A394B9",
"++	c #A492B6",
"@+	c #A09BBD",
"#+	c #A986AD",
"$+	c #A491B6",
"%+	c #BFD0E2",
"&+	c #606E93",
"*+	c #EB8C8F",
"=+	c #F79191",
"-+	c #DA2726",
";+	c #929FBC",
">+	c #D7E4EF",
",+	c #B6C2CE",
"'+	c #C3D4E5",
")+	c #A2ABC9",
"!+	c #AC81AA",
"~+	c #A198BC",
"{+	c #A68DB3",
"]+	c #A490B5",
"^+	c #9BA5C7",
"/+	c #BACDE0",
"(+	c #767FA0",
"_+	c #D32E35",
":+	c #F36363",
"<+	c #E44646",
"[+	c #384879",
"}+	c #9AA9C2",
"|+	c #D6E3EE",
"1+	c #B8C4D0",
"2+	c #C2D3E5",
"3+	c #8791AE",
"4+	c #C1313D",
"5+	c #F25757",
"6+	c #E95757",
"7+	c #CF0202",
"8+	c #384A7A",
"9+	c #A2B0C8",
"0+	c #BAC5D1",
"a+	c #C1D3E4",
"b+	c #98AACA",
"c+	c #AC82AB",
"d+	c #97A1BC",
"e+	c #B03444",
"f+	c #F24B4B",
"g+	c #ED6767",
"h+	c #CF0303",
"i+	c #384B7A",
"j+	c #ABB8CF",
"k+	c #BDC8D3",
"l+	c #BFD1E4",
"m+	c #9F9BBF",
"n+	c #AD80A8",
"o+	c #AB84AC",
"p+	c #AB83AA",
"q+	c #A68EB4",
"r+	c #9D374C",
"s+	c #F14040",
"t+	c #F17575",
"u+	c #CE0303",
"v+	c #394B79",
"w+	c #B2BFD5",
"x+	c #BECAD5",
"y+	c #BED1E3",
"z+	c #A5BDD6",
"A+	c #B0BED3",
"B+	c #873B55",
"C+	c #F03535",
"D+	c #F48585",
"E+	c #CE0101",
"F+	c #394B7A",
"G+	c #B9C6DA",
"H+	c #D4E1ED",
"I+	c #C2CCD7",
"J+	c #BDD0E3",
"K+	c #BBC9DB",
"L+	c #746181",
"M+	c #F69191",
"N+	c #384A79",
"O+	c #C0CDDF",
"P+	c #D3E1ED",
"Q+	c #C5D0DB",
"R+	c #BBCFE2",
"S+	c #ADC4DB",
"T+	c #A1BAD5",
"U+	c #97B2D0",
"V+	c #96B2CF",
"W+	c #9AB5D1",
"X+	c #C7D3E3",
"Y+	c #553C61",
"Z+	c #CB0000",
"`+	c #CD0000",
" @	c #374978",
".@	c #CDDCEB",
"+@	c #BBCEE2",
"@@	c #B2C7DD",
"#@	c #ACC2DA",
"$@	c #AEC4DA",
"%@	c #B6C9DE",
"&@	c #B8CBDF",
"*@	c #BDCEE1",
"=@	c #C1D1E3",
"-@	c #C3D3E4",
";@	c #C5D4E5",
">@	c #C7D6E6",
",@	c #C9D7E7",
"'@	c #C8D6E6",
")@	c #CAD8E7",
"!@	c #CDDAE8",
"~@	c #D0DCE9",
"{@	c #374877",
"]@	c #CEDBE9",
"^@	c #C5D1E1",
"/@	c #7788AA",
"(@	c #6A799D",
"_@	c #727F9F",
":@	c #7783A1",
"<@	c #7984A3",
"[@	c #7A84A3",
"}@	c #858FAA",
"|@	c #848FA9",
"1@	c #6D7B9F",
"2@	c #5F6E96",
"3@	c #68789D",
"4@	c #8E97AD",
"5@	c #CACACB",
"6@	c #CBCBCB",
"7@	c #808BA6",
"8@	c #5B6B94",
"9@	c #364877",
"0@	c #B9C5D9",
"a@	c #D0D1D3",
"b@	c #D8D8D8",
"c@	c #D9D9D9",
"d@	c #DADADA",
"e@	c #CACCD2",
"f@	c #3C4D7A",
"g@	c #AEBBD1",
"h@	c #D5D7DE",
"i@	c #EBEBEB",
"j@	c #ECECEC",
"k@	c #EDEDED",
"l@	c #E2E4E6",
"m@	c #5F6E97",
"n@	c #374775",
"o@	c #A2B0C9",
"p@	c #67789D",
"q@	c #7E8BAB",
"r@	c #DEE2E9",
"s@	c #F3F4F7",
"t@	c #F4F5F8",
"u@	c #FAFBFC",
"v@	c #FFFFFF",
"w@	c #C2C8D7",
"x@	c #6C7B9F",
"y@	c #455783",
"z@	c #2D3C64",
"A@	c #7B8CAC",
"B@	c #5E6D95",
"C@	c #5B6B93",
"D@	c #596992",
"E@	c #475885",
"F@	c #31416C",
"G@	c #364774",
"H@	c #354878",
"I@	c #374879",
"                                                                ",
"          . + + + + + + + + + @ @ @ @ @ @ @ @ @ @ @ #           ",
"        $ % & * = - ; > , - ' ) ! ~ { ] ^ / ( _ : < [           ",
"        } | 1 2 3 4 5 5 5 5 5 5 5 5 5 5 5 5 5 5 5 6 7 8         ",
"        9 0 a b 3 4 5 5 5 5 5 5 5 5 5 5 5 5 5 5 5 c d e         ",
"        f g h i 3 4 5 5 5 j k l m n o p q 5 5 5 5 r s t u       ",
"        v w x y 3 4 5 z A B C A D E F G C H 5 5 5 I J K L       ",
"        M w N O 3 4 q P Q R 5 5 5 5 5 S P T U 5 5 V W X Y       ",
"        Z `  ...3 4 +.T @.5 z #.$.%.U j &.*.+.5 5 =.-.;.>.,.    ",
"        '.` ).* 3 !.~.{.5 ].^./.G (._._.5 :.<.5 5 [.}.|.1.2.    ",
"        3.4.5.6.3 7.P 5 5 8.9.].5 0.a.b.5 c.a.j 5 d.e.f.g.h.    ",
"        i.` j.k.3 l.m.5 %.n.o.5 5 5 p.q.5 r.a.s.5 t.u.v.w.x.    ",
"        y.` z.A.3 B.C.5 D.a.E.5 5 5 T k 5 F.G.5 5 5 H.I.J.K.    ",
"        L.w M.N.3 O.P.5 S Q.F.5 5 D./.R.S.9.A 5 5 5 T.U.V.W.X.  ",
"        Y.w Z.`.3  +.+5 5 ++(.@+@+#+~.8.Q $+q 5 5 5 %+&+*+=+-+  ",
"        ;+>+,+'+3 )+!+j 5 S.~+{+]+^+]+o F.5 5 5 5 5 /+(+_+:+<+  ",
"      [+}+|+1+2+3 4 P 9.U 5 5 5 5 5 5 S.5 5 5 5 5 5 ) 3+4+5+6+7+",
"      8+9+g 0+a+3 4 U ^.#+P.@.5 5 b+~+c+b+5 5 5 5 5 I d+e+f+g+h+",
"      i+j+g k+l+3 4 5 &.m+#+n+o+p+n.q+^+5 5 5 5 5 5 ; -.r+s+t+u+",
"      v+w+g x+y+3 4 5 5 5 5 b+$.R S.5 5 5 5 5 5 5 5 z+A+B+C+D+E+",
"      F+G+H+I+J+3 4 5 5 5 5 5 5 5 5 5 5 5 5 5 5 5 5 [.K+L+=+M+V.",
"      N+O+P+Q+R+S+T+U+U+V+5 5 5 5 5 5 5 5 5 5 5 5 5 W+X+Y+Z+`+u+",
"       @X+w .@N.+@@@#@$@- r %@&@/+*@%+=@-@;@>@,@'@)@!@~@v+      ",
"      {@]@^@/@(@_@:@<@<@<@<@<@<@<@<@<@<@<@<@<@[@}@|@1@2@N+      ",
"      9 ~@3@4@5@6@6@6@6@6@6@6@6@6@6@6@6@6@6@6@6@6@7@8@v+@       ",
"      9@0@8@a@b@b@c@c@c@c@c@c@c@c@c@d@d@d@d@d@d@e@8@8@f@        ",
"      9 g@8@h@i@i@i@i@i@j@j@j@j@j@j@j@j@k@k@k@k@l@m@8@[         ",
"      n@o@p@q@r@s@s@s@s@t@t@t@t@t@t@t@u@v@v@v@v@v@w@x@y@z@      ",
"        [ A@B@8@8@8@8@8@8@C@D@D@D@D@D@D@D@D@D@D@D@D@D@E@F@      ",
"          G@ @@ @ @ @ @ @ H@I@I@I@I@I@I@f 9 9 9 9 9 9  @        ",
"                                                                ",
"                                                                "};
